<?xml version="1.0" standalone="no"?><!DOCTYPE svg PUBLIC "-//W3C//DTD SVG 1.1//EN" "http://www.w3.org/Graphics/SVG/1.1/DTD/svg11.dtd"><svg t="1547091377114" class="icon" style="" viewBox="0 0 1117 1024" version="1.1" xmlns="http://www.w3.org/2000/svg" p-id="8302" xmlns:xlink="http://www.w3.org/1999/xlink" width="17.453125" height="16"><defs><style type="text/css"></style></defs><path d="M1024.029324 146.152727h-46.545455v-46.545454h-93.090909v46.545454h-93.090909V0H372.39296v146.152727H232.756596v-46.545454H139.665687v46.545454H93.120233a95.418182 95.418182 0 0 0-93.090909 97.745455V926.254545A95.418182 95.418182 0 0 0 93.120233 1024h930.909091a95.418182 95.418182 0 0 0 93.090909-97.745455V243.898182a95.418182 95.418182 0 0 0-93.090909-97.745455zM465.483869 93.090909h232.727273v46.545455h-232.727273zM93.120233 930.909091V232.727273h930.909091v698.181818z" fill="#ff0000" p-id="8303"></path><path d="M523.665687 430.545455h101.003637a50.734545 50.734545 0 0 1 50.269091 50.26909h101.003636a151.738182 151.738182 0 0 0-151.272727-151.272727V279.272727h-101.003637v50.269091a151.272727 151.272727 0 0 0 0 302.545455h101.003637a50.734545 50.734545 0 0 1 0 101.003636h-101.003637a50.269091 50.269091 0 0 1-50.269091-50.269091H372.39296a151.738182 151.738182 0 0 0 151.272727 151.272727V884.363636h101.003637v-50.269091a151.272727 151.272727 0 1 0 0-302.545454h-101.003637a50.734545 50.734545 0 0 1 0-101.003636z" fill="#ff0000" p-id="8304"></path></svg>