<?xml version="1.0" standalone="no"?><!DOCTYPE svg PUBLIC "-//W3C//DTD SVG 1.1//EN" "http://www.w3.org/Graphics/SVG/1.1/DTD/svg11.dtd"><svg t="1559779505405" class="icon" style="" viewBox="0 0 1068 1024" version="1.1" xmlns="http://www.w3.org/2000/svg" p-id="14637" xmlns:xlink="http://www.w3.org/1999/xlink" width="16.6875" height="16"><defs><style type="text/css"></style></defs><path d="M218.797635 106.852174h577.536C848.094609 106.852174 890.434783 148.382052 890.434783 199.136835v608.104626c0 4.559026-0.240417 9.4208-0.739061 14.558609-1.754157 17.773078-7.061148 33.872139-17.630609 46.035478-11.272904 12.973635-27.550052 20.862887-50.354087 20.862887-2.795965 0-6.144-0.195896-9.990678-0.55207-21.44167-2.039096-35.261217-8.058435-47.878678-13.534608-8.886539-3.882296-16.989496-7.408417-26.08974-7.7824-11.771548-0.480835-22.750609 4.808348-33.284452 9.910539-13.65927 6.607026-26.819896 12.955826-43.773774 12.314713-19.055304-0.721252-31.548104-7.301565-43.916243-13.837357-8.904348-4.701496-17.737461-9.35847-28.796661-9.358469-12.109913 0-22.474574 5.298087-32.732383 10.516034-13.953113 7.123478-27.781565 14.157913-47.629356 14.059966-19.990261 0.089043-33.818713-6.945391-47.771826-14.059966-10.257809-5.217948-20.631374-10.516035-32.732383-10.516034-11.0592 0-19.892313 4.656974-28.796661 9.349565-12.377043 6.544696-24.869843 13.125009-43.916243 13.846261-16.953878 0.641113-30.114504-5.716591-43.773774-12.314713-10.516035-5.102191-21.512904-10.391374-33.275548-9.910539-9.091339 0.373983-17.212104 3.917913-26.098643 7.773495-12.608557 5.485078-26.437009 11.522226-47.878679 13.534609-3.855583 0.365078-7.194713 0.560974-9.990678 0.560974-22.821843 0-39.090087-7.889252-50.362991-20.862887-10.560557-12.163339-15.867548-28.2624-17.630609-46.035478A147.073113 147.073113 0 0 1 124.66087 807.241461V199.136835C124.678678 148.382052 167.027757 106.852174 218.797635 106.852174z m76.728765 217.177043h424.060661a17.47033 17.47033 0 0 1 0 34.816H295.535304a17.47033 17.47033 0 0 1 0-34.816z m-4.425461 157.22407h325.293635c19.411478 0 19.429287 34.816 0 34.816H291.100939c-19.39367-0.017809-19.447096-34.816 0-34.816zM160.171409 199.154643v608.104627c0 4.256278 0.14247 8.067339 0.463026 11.299617 1.08633 11.0592 3.917913 20.533426 9.305043 26.713043 4.665878 5.369322 12.163339 8.628313 23.471861 8.628313 2.493217 0 4.737113-0.089043 6.669357-0.26713 15.449043-1.460313 26.68633-6.366609 36.935234-10.827687 12.14553-5.298087 23.240348-10.124243 38.974331-10.774261 20.48-0.845913 35.706435 6.526887 50.327374 13.579131 9.447513 4.559026 18.538852 8.966678 26.855513 8.646121 10.925635-0.400696 19.705322-5.039861 28.404869-9.616695 12.911304-6.82073 25.706852-13.57913 45.572453-13.579131 20.729322 0 34.985183 7.274852 49.080765 14.451757 10.053009 5.128904 20.00807 10.186574 31.254261 10.124243 11.415374 0.06233 21.36153-4.995339 31.414539-10.124243 14.095583-7.176904 28.351443-14.451757 49.080765-14.451757 19.847791 0 32.661148 6.7584 45.572452 13.579131 8.699548 4.585739 17.452522 9.216 28.40487 9.616695 8.289948 0.320557 17.399096-4.087096 26.846608-8.646121 14.60313-7.070052 29.856278-14.433948 50.327374-13.579131 15.742887 0.658922 26.837704 5.493983 38.983235 10.774261 10.24 4.461078 21.477287 9.349565 36.935235 10.827687 1.950052 0.186991 4.167235 0.26713 6.660452 0.26713 11.308522 0 18.814887-3.258991 23.480765-8.619408 5.369322-6.188522 8.209809-15.662748 9.296139-26.721948 0.320557-3.232278 0.463026-7.034435 0.463027-11.308522V199.145739c-0.097948-31.708383-26.285635-57.388522-58.617322-57.486469h-577.536c-32.331687 0.115757-58.519374 25.795896-58.626226 57.504278z" fill="#666666" p-id="14638"></path><path d="M286.034365 638.441739h212.039235c12.644174 0 12.661983 34.816 0 34.816H286.034365c-12.644174 0-12.679791-34.816 0-34.816z" fill="#CCCCCC" p-id="14639"></path><path d="M729.506504 775.150191h82.151513c6.161809 0 10.266713 3.739826 10.266713 9.367374 0 5.627548-4.096 9.376278-10.266713 9.376278h-82.151513c-6.161809 0-10.266713-3.74873-10.266713-9.376278 0-5.618643 4.104904-9.367374 10.266713-9.367374z m0-56.239861h143.7696c6.161809 0 10.266713 3.739826 10.266713 9.367374 0 5.627548-4.104904 9.376278-10.266713 9.376279H729.506504c-6.161809 0-10.266713-3.739826-10.266713-9.376279 0-5.618643 4.104904-9.367374 10.266713-9.367374z" fill="#FFFFFF" p-id="14640"></path><path d="M541.75833 756.201739l-0.026713-2.145948c0-133.752209 120.725148-236.668661 262.820731-236.668661 142.095583 0 262.82073 102.916452 262.82073 236.668661 0 134.526887-120.386783 236.668661-262.82073 236.668661-8.485843 0-17.194296-0.445217-25.973983-1.308939-33.088557 11.637983-67.877843 16.980591-104.421287 18.432l-229.260243 9.064626 137.394087-135.898156c-25.25273-36.098226-39.446261-79.337739-40.532592-124.812244z m230.088348 142.442852l7.533079-22.875269a154.757565 154.757565 0 0 0-0.650018-15.609322l-88.669496 8.147478h89.043479v-10.061913l-7.265948 40.399026z m32.70567-86.016c49.9712 0 84.733774-29.4912 84.733774-58.5728 0-28.52953-35.252313-58.581704-84.733774-58.581704-48.920487 0-83.923478 29.366539-84.72487 57.602226 0.67673 15.279861 7.337183 28.013078 19.197774 36.641391l22.358818 16.5888 7.390608-2.430887 24.10407 7.942679c4.15833 0.534261 8.165287 0.8192 11.664695 0.8192z" fill="#FFFFFF" p-id="14641"></path><path d="M649.367374 925.989843a109.256348 109.256348 0 0 1-1.825391-0.053426 33.11527 33.11527 0 0 1-2.030192-0.12466 15.351096 15.351096 0 0 1 8.120766 4.452173l-4.274087-4.274087z m-3.855583-0.178086a2.065809 2.065809 0 0 1 0.071235 0.017808l-0.071235-0.017808z m118.445635-18.690227l4.131617-1.754156 4.469983 0.4096c16.205913 1.469217 23.293774 1.958957 31.877565 1.958956 97.333426 0 175.04167-67.9936 175.04167-151.124591C979.478261 674.148174 901.360417 605.495652 804.436591 605.495652c-96.923826 0-175.04167 68.643617-175.050574 150.741705 0.908243 42.562783 19.794365 81.403548 52.259618 107.626852l6.909774 5.583026-0.302748 8.877635c-0.6144 17.871026-8.779687 33.097461-21.521809 45.652591-0.712348 0.703443-1.424696 1.389078-2.137043 2.048 33.596104-0.445217 69.453913-6.152904 99.372521-18.903931zM660.310817 961.669565c-8.156383 0-11.023583-0.017809-14.140104-0.142469a55.385043 55.385043 0 0 1-5.841252-0.471931 33.613913 33.613913 0 0 1-3.704209-0.712348l-95.490226-8.209808 56.382331-28.2624 32.27826-16.1792a60.522852 60.522852 0 0 0 11.931826-9.082435c4.5056-4.44327 7.728974-9.118052 9.465322-13.979826-35.715339-32.5632-56.364522-78.251409-57.415235-128.017809C593.77753 653.365426 688.795826 569.878261 804.436591 569.878261 920.077357 569.878261 1015.095652 653.365426 1015.095652 756.611339c0 103.940452-94.635409 186.741983-210.659061 186.741983-9.135861 0-16.428522-0.445217-30.728904-1.718539-35.332452 14.202435-75.71367 20.034783-113.405774 20.034782z" fill="#FA5945" p-id="14642"></path><path d="M40.069565 204.8l13.24967 22.26087L80.13913 231.806887l-18.805982 18.69913L64.734609 276.034783 40.069565 265.055722 15.404522 276.034783l3.401461-25.226018L0 232.109635l26.819896-4.754922L40.069565 204.8" fill="#9B9B9B" p-id="14643"></path><path d="M287.850852 31.726191L302.747826 34.691339l-10.4448 11.682504L294.181843 62.330435 280.486957 55.474087 266.79207 62.330435l1.878817-15.760696L258.226087 34.869426l14.896974-2.974052L280.486957 17.808696z" fill="#999999" p-id="14644"></path><path d="M77.022609 33.391304l38.733913 7.123479L88.598261 68.563478l4.897391 38.288696-35.617391-16.473044-35.617391 16.473044 4.897391-37.843478L0 40.96l38.733913-7.123478L57.878261 0z" fill="#FA5945" p-id="14645"></path><path d="M805.843478 899.33913c76.221217 0 138.017391-45.848487 138.017392-102.4S882.064696 694.53913 805.843478 694.53913c-76.221217 0-150.661565 66.230539-150.661565 122.790957 0 56.542609 74.440348 82.009043 150.661565 82.009043z" fill="#FFFFFF" p-id="14646"></path><path d="M834.577809 761.321739l42.117565 42.117565a16.508661 16.508661 0 0 1 0 23.356105l-5.378226 5.378226a16.508661 16.508661 0 0 1-23.356105 0l-42.117565-42.117565-42.117565 42.117565a16.508661 16.508661 0 0 1-23.356104 0l-5.378226-5.378226a16.508661 16.508661 0 0 1 0-23.356105l42.117565-42.117565-42.117565-42.117565a16.508661 16.508661 0 0 1 0-23.356104l5.378226-5.378227a16.508661 16.508661 0 0 1 23.356104 0l42.117565 42.117566 42.117565-42.117566a16.508661 16.508661 0 0 1 23.356105 0l5.378226 5.378227a16.508661 16.508661 0 0 1 0 23.356104l-42.117565 42.117565z" fill="#FA5945" p-id="14647"></path></svg>