<?xml version="1.0" standalone="no"?><!DOCTYPE svg PUBLIC "-//W3C//DTD SVG 1.1//EN" "http://www.w3.org/Graphics/SVG/1.1/DTD/svg11.dtd"><svg t="1548998527731" class="icon" style="" viewBox="0 0 1024 1024" version="1.1" xmlns="http://www.w3.org/2000/svg" p-id="48140" xmlns:xlink="http://www.w3.org/1999/xlink" width="16" height="16"><defs><style type="text/css"></style></defs><path d="M496 260.794182c-4.794182 0-9.6 1.605818-14.394182 1.605818v-99.2h-275.2a30.382545 30.382545 0 0 0-30.405818 30.394182v275.2h99.2a44.288 44.288 0 0 1-1.605818-14.394182 56.692364 56.692364 0 0 1 56.005818-55.994182 53.701818 53.701818 0 0 1 36.794182 17.605818c20.794182 20.794182 20.794182 36.794182 16 51.2h99.2v-99.211636a44.218182 44.218182 0 0 0 14.394182 1.605818 56.692364 56.692364 0 0 0 56.005818-55.994182 57.332364 57.332364 0 0 0-55.994182-52.817454z" fill="#FFDC83" p-id="48141"></path><path d="M496 260.794182c-4.794182 0-9.6 1.605818-14.394182 1.605818v-99.2h-275.2a30.382545 30.382545 0 0 0-30.405818 30.394182v275.2h99.2a44.288 44.288 0 0 1-1.605818-14.394182 56.692364 56.692364 0 0 1 56.005818-55.994182 53.701818 53.701818 0 0 1 36.794182 17.605818c20.794182 20.794182 20.794182 36.794182 16 51.2h99.2v-99.211636a44.218182 44.218182 0 0 0 14.394182 1.605818 56.692364 56.692364 0 0 0 56.005818-55.994182 57.332364 57.332364 0 0 0-55.994182-52.817454z" fill="#FFD96E" p-id="48142"></path><path d="M787.211636 192.011636a26.973091 26.973091 0 0 0-27.205818-27.205818h-278.4v99.2a44.299636 44.299636 0 0 1 14.405818-1.605818 56.005818 56.005818 0 0 1 0 112c-4.805818 0-9.6-1.605818-14.405818-1.605818v99.211636h99.2a44.311273 44.311273 0 0 0-1.594182 14.405818 56.005818 56.005818 0 0 0 112 0c0-4.805818-1.605818-9.6-1.605818-14.405818h99.2v-279.994182z" fill="#FF8894" p-id="48143"></path><path d="M550.4 316.8a49.233455 49.233455 0 0 1-9.6 30.394182 57.495273 57.495273 0 0 0 25.6-46.394182 56.692364 56.692364 0 0 0-56.005818-55.994182c-4.794182 0-9.6 1.605818-14.394182 1.605818v-83.211636h-16v99.2a44.288 44.288 0 0 1 14.394182-1.605818 55.656727 55.656727 0 0 1 56.005818 56.005818z" fill="#E07388" p-id="48144"></path><path d="M649.6 523.205818a56.692364 56.692364 0 0 1-55.994182-56.005818c0-4.794182 1.594182-9.6 1.594182-14.394182h-99.2v-81.594182h-1.605818c-4.794182 0-9.6-1.605818-14.394182-1.605818v99.2h99.2a44.299636 44.299636 0 0 0-1.594182 14.394182 56.692364 56.692364 0 0 0 55.994182 55.994182 53.690182 53.690182 0 0 0 46.394182-25.6 49.233455 49.233455 0 0 1-30.394182 9.611636z" fill="#E07388" p-id="48145"></path><path d="M704 454.4a44.299636 44.299636 0 0 1 1.605818 14.394182v1.605818h81.605818v-16z" fill="#E07388" p-id="48146"></path><path d="M704 454.4a44.299636 44.299636 0 0 1 1.605818 14.394182v1.605818h81.605818v-16z" fill="#E07388" p-id="48147"></path><path d="M686.394182 454.4a44.299636 44.299636 0 0 1 1.605818 14.394182v1.605818h81.605818v-16z" fill="#E07388" p-id="48148"></path><path d="M276.794182 436.805818h14.405818a44.218182 44.218182 0 0 1-1.605818-14.394182v-8.005818a80.290909 80.290909 0 0 0-12.8 22.4z" fill="#FFDC83" p-id="48149"></path><path d="M382.405818 401.605818a51.362909 51.362909 0 0 0-83.2 8.005818 52.677818 52.677818 0 0 1 30.394182-9.6 53.701818 53.701818 0 0 1 36.794182 17.605819c20.794182 20.794182 20.794182 36.794182 16 51.2h99.2v-16h-83.2a51.560727 51.560727 0 0 0-15.988364-51.211637z" fill="#FCBE63" p-id="48150"></path><path d="M273.605818 452.805818h-81.605818v-275.2a37.655273 37.655273 0 0 1 3.2-12.8 31.604364 31.604364 0 0 0-19.2 28.8v275.2h99.2a44.299636 44.299636 0 0 1-1.605818-14.405818z" fill="#FCBE63" p-id="48151"></path><path d="M512.011636 356.805818c-4.794182 0-9.6-1.605818-14.405818-1.605818-7.994182-1.594182-12.8-4.794182-16-4.794182v20.794182c3.2 0 4.794182 1.605818 8.005818 1.605818h8.005819a51.072 51.072 0 0 0 44.8-25.6 52.666182 52.666182 0 0 1-30.405819 9.6z" fill="#FCBE63" p-id="48152"></path><path d="M467.2 566.4c4.794182 0 9.6 1.605818 14.394182 1.605818v-99.2h-99.2a44.311273 44.311273 0 0 0 1.594182-14.394182 56.005818 56.005818 0 0 0-112 0c0 4.805818 1.605818 9.6 1.605818 14.394182h-97.594182v278.4a26.973091 26.973091 0 0 0 27.205818 27.205818h278.4v-99.2a44.311273 44.311273 0 0 1-14.394182 1.594182 56.692364 56.692364 0 0 1-55.994181-55.994182 55.319273 55.319273 0 0 1 55.982545-54.411636z" fill="#6CE5DC" p-id="48153"></path><path d="M219.205818 758.411636a26.973091 26.973091 0 0 1-27.205818-27.205818v-262.4h-16v278.4a26.973091 26.973091 0 0 0 27.205818 27.205818h278.4v-16z" fill="#56D1C5" p-id="48154"></path><path d="M436.794182 576.011636a49.233455 49.233455 0 0 1 30.394182-9.6c4.805818 0 9.6 1.605818 14.405818 1.605819v-17.605819a58.833455 58.833455 0 0 0-44.8 25.6z" fill="#56D1C5" p-id="48155"></path><path d="M748.788364 531.211636a44.218182 44.218182 0 0 1 1.605818 14.394182 56.692364 56.692364 0 0 1-55.994182 56.005818 55.726545 55.726545 0 0 1-54.4-57.6c0-4.805818 1.605818-9.6 1.605818-14.405818h-99.211636v99.2a44.322909 44.322909 0 0 0-14.405818-1.594182 56.005818 56.005818 0 1 0 0 112c4.794182 0 9.6-1.605818 14.405818-1.605818v99.2h278.4a26.973091 26.973091 0 0 0 27.205818-27.205818v-278.388364z" fill="#5AA1ED" p-id="48156"></path><path d="M836.805818 820.805818h-278.4v-99.2a44.322909 44.322909 0 0 1-14.405818 1.594182 56.692364 56.692364 0 0 1-55.994182-55.994182 49.233455 49.233455 0 0 1 9.6-30.394182 57.495273 57.495273 0 0 0-25.6 46.394182 56.692364 56.692364 0 0 0 56.005818 56.005818c4.794182 0 9.6-1.605818 14.405819-1.605818v99.2h278.4a28.171636 28.171636 0 0 0 25.6-17.605818c-3.211636 0.011636-6.411636 1.605818-9.611637 1.605818z" fill="#3D8ED8" p-id="48157"></path><path d="M742.4 574.405818a58.833455 58.833455 0 0 0 25.6-44.8h-17.605818a44.299636 44.299636 0 0 1 1.605818 14.405818 84.945455 84.945455 0 0 1-9.6 30.394182z" fill="#3D8ED8" p-id="48158"></path><path d="M544.011636 611.2c4.794182 0 9.6 1.605818 14.405819 1.605818v-83.2h-16.011637v81.605818c1.605818 1.594182 1.605818-0.011636 1.605818-0.011636z" fill="#3D8ED8" p-id="48159"></path><path d="M544.011636 630.411636c4.794182 0 9.6 1.605818 14.405819 1.605819v-83.211637h-16.011637v81.605818z" fill="#3D8ED8" p-id="48160"></path><path d="M289.594182 439.994182c0 4.794182 1.605818 9.6 1.605818 14.394182 1.605818 8.005818 4.794182 12.8 4.794182 16h-20.794182c0-3.2-1.605818-4.794182-1.605818-7.994182V454.388364a51.072 51.072 0 0 1 25.6-44.8 49.233455 49.233455 0 0 0-9.6 30.405818z" fill="#56D1C5" p-id="48161"></path></svg>