<?xml version="1.0" standalone="no"?><!DOCTYPE svg PUBLIC "-//W3C//DTD SVG 1.1//EN" "http://www.w3.org/Graphics/SVG/1.1/DTD/svg11.dtd"><svg t="1559169896674" class="icon" style="" viewBox="0 0 1024 1024" version="1.1" xmlns="http://www.w3.org/2000/svg" p-id="498" xmlns:xlink="http://www.w3.org/1999/xlink" width="16" height="16"><defs><style type="text/css"></style></defs><path d="M72.382324 1013.557289h308.367126c7.371326 0 13.309338-5.938012 13.309338-13.309339v-188.173565c0-7.371326-5.938012-13.309338-13.309338-13.309338H72.382324" fill="#AAB1BA" p-id="499"></path><path d="M916.603879 741.842032c-5.323735 0-10.442711 1.228554-15.356928 3.480903l-194.111578 94.598681c-8.804639 4.29994-18.633073 6.55229-28.666267 6.552289h-15.561687c-5.938012-10.237952-16.995001-16.380724-28.871026-16.380724H393.854029v155.207359h304.067187c14.333133 0 28.256749-4.914217 39.108978-14.128374l201.687662-167.697661c25.390122-20.885423 10.647471-61.632474-22.113977-61.632473z" fill="#FDDF7F" p-id="500"></path><path d="M526.333133 10.237952h98.489103c11.261748 0 20.271146 9.214157 20.271145 20.271146 0 11.261748-9.214157 20.271146-20.271145 20.271146H526.333133c-11.261748 0-20.271146-9.214157-20.271145-20.271146S515.071386 10.237952 526.333133 10.237952zM811.562488 173.635673h-144.559889c-18.837832-50.575485-74.941812-76.170366-125.517296-57.332534-26.413917 9.828434-47.504099 30.713857-57.332534 57.332534H374.811438c-36.856629 0-66.956209 29.894821-66.956209 66.956209V305.090982h69.618076v-40.337533c0-12.89982 10.442711-23.137772 23.137773-23.137772h83.541691c18.837832 50.575485 74.941812 76.170366 125.517297 57.332533 26.618676-9.828434 47.504099-30.713857 57.332533-57.332533h144.559889V173.635673z" fill="#AAB1BA" p-id="501"></path><path d="M380.544691 371.842432h-72.689462L237.213357 485.278944c-45.25175 72.279944-27.028194 167.288142 41.566087 218.068387 19.042591 14.128374 41.975605 21.4997 65.522896 21.4997s46.480304-7.576085 65.522895-21.70446c68.594281-50.780244 86.613077-145.583683 41.566087-218.068386l-70.846631-113.231753z" fill="#83E1E5" p-id="502"></path><path d="M350.035593 535.854429h-11.671266c-1.842831 0-3.276145-1.433313-3.276145-3.276145v-13.718856c0-1.842831 1.433313-3.276145 3.276145-3.276145h27.437713c6.961808 0 12.490302-5.528494 12.490302-12.490302 0-6.961808-5.528494-12.490302-12.490302-12.490302h-7.166567v-8.190361c0-6.961808-5.528494-12.490302-12.490302-12.490302-6.961808 0-12.490302 5.528494-12.490302 12.490302v8.59988c-13.514097 2.25235-23.547291 14.128374-23.547291 27.84723v13.718856c0 15.561688 12.695061 28.256749 28.256749 28.256749h11.671266c1.842831 0 3.276145 1.433313 3.276145 3.276145v13.718856c0 1.842831-1.433313 3.276145-3.276145 3.276145h-27.437713c-6.961808 0-12.490302 5.528494-12.490302 12.490302s5.528494 12.490302 12.490302 12.490302h11.056989v8.190362c0 6.961808 5.528494 12.490302 12.490302 12.490302 6.961808 0 12.490302-5.528494 12.490302-12.490302v-9.623676c11.671266-3.685663 19.656869-14.742651 19.656869-26.823435v-13.718856c0-15.561688-12.695061-28.256749-28.256749-28.256749z" fill="#FDDF7F" p-id="503"></path><path d="M62.144371 798.560288c0-5.733253 4.504699-10.237952 10.237953-10.237952h11.876024c5.733253 0 10.237952 4.504699 10.237953 10.237952s-4.504699 10.237952-10.237953 10.237952h-11.876024c-5.733253 0-10.237952-4.504699-10.237953-10.237952z m883.330534 12.89982l-201.687662 167.69766c-12.89982 10.647471-29.075785 16.585483-45.661268 16.585483H404.091982v4.709458c0 13.104579-10.647471 23.547291-23.547291 23.547291H72.382324c-5.733253 0-10.237952-4.504699-10.237953-10.237952s4.504699-10.237952 10.237953-10.237953H313.383723v-194.521096H121.114977c-5.733253 0-10.237952-4.504699-10.237952-10.237952s4.504699-10.237952 10.237952-10.237952h259.429714c13.104579 0 23.547291 10.647471 23.547291 23.54729v7.780844h230.14917c13.309338 0 25.79964 6.142771 34.194761 16.380724h10.237952c8.395121 0 16.585483-1.842831 24.161568-5.528494l194.111578-94.598681c6.142771-3.071386 12.89982-4.504699 19.861627-4.504699 24.980604 0 45.25175 20.271146 45.25175 45.25175-0.204759 13.309338-6.142771 26.004399-16.585483 34.604279z m-561.858828 0.409518c0-1.638072-1.433313-3.071386-3.071386-3.071386H333.859628v194.521096h46.685063c1.638072 0 3.071386-1.433313 3.071386-3.071386v-188.378324zM939.946411 768.255949c-3.480904-9.828434-12.695061-16.380724-23.137773-16.380724-3.685663 0-7.371326 0.819036-10.852229 2.457109l-194.111578 94.59868c-10.237952 4.914217-21.704459 7.576085-33.170966 7.576085h-1.228554c3.890422 23.75205-12.080784 46.070786-35.628074 49.961207-2.457109 0.409518-4.914217 0.614277-7.371326 0.614277h-179.164167c-5.733253 0-10.237952-4.504699-10.237953-10.237952s4.504699-10.237952 10.237953-10.237952h179.164167c12.89982-0.204759 23.137772-10.647471 23.137772-23.547291-0.204759-12.695061-10.442711-22.933013-23.137772-23.137772h-22.933014v14.94741c0 5.733253-4.504699 10.237952-10.237952 10.237953s-10.237952-4.504699-10.237952-10.237953v-14.94741h-186.535493V974.653069H698.330734c11.876025 0 23.547291-4.095181 32.761448-11.876024l201.687662-167.697661c7.780844-5.938012 10.85223-16.995001 7.166567-26.823435zM384.844631 530.121176c9.009398 9.009398 13.923615 21.294941 13.923615 34.194761v13.718856c0 15.356929-7.371326 30.09958-19.656868 39.108978-1.433313 18.223555-17.404519 31.737652-35.628075 30.09958-12.695061-1.023795-23.75205-9.418916-28.256748-21.4997-17.814037-4.095181-28.871026-21.704459-24.775845-39.518496 1.842831-7.985603 6.55229-14.947411 13.104579-19.656869-9.009398-9.009398-13.923615-21.294941-13.923615-34.194761v-13.718856c0-17.19976 9.214157-33.375725 23.956808-41.975605 3.071386-18.018796 20.066387-30.09958 38.085183-27.028194 12.080784 2.04759 22.113977 10.647471 25.79964 22.318736 16.995001 6.55229 25.594881 25.594881 19.042592 42.589882-2.25235 6.34753-6.34753 11.671266-11.671266 15.561688z m-49.756449 2.457108v-13.718856c0-1.842831 1.433313-3.276145 3.276145-3.276145h27.437713c6.961808 0 12.490302-5.528494 12.490302-12.490302 0-6.961808-5.528494-12.490302-12.490302-12.490302h-7.166567v-8.190361c0-6.961808-5.528494-12.490302-12.490302-12.490302-6.961808 0-12.490302 5.528494-12.490302 12.490302v8.59988c-13.514097 2.25235-23.547291 14.128374-23.547291 27.84723v13.718856c0 15.561688 12.695061 28.256749 28.256749 28.256749h11.671266c1.842831 0 3.276145 1.433313 3.276145 3.276145v13.718856c0 1.842831-1.433313 3.276145-3.276145 3.276145h-27.437713c-6.961808 0-12.490302 5.528494-12.490302 12.490302s5.528494 12.490302 12.490302 12.490302h11.056989v8.190362c0 6.961808 5.528494 12.490302 12.490302 12.490302 6.961808 0 12.490302-5.528494 12.490302-12.490302v-9.623676c11.671266-3.685663 19.656869-14.742651 19.656869-26.823435v-13.718856c0-15.561688-12.695061-28.256749-28.256749-28.256749h-11.671266c-1.842831 0-3.276145-1.433313-3.276145-3.276145zM297.617277 305.090982v-64.703859c0-42.589882 34.604279-77.194161 77.194161-77.194162h102.584283c15.971206-35.218556 49.55169-59.175365 88.046391-62.861027V61.222955H526.333133c-16.995001 0-30.509098-13.718856-30.509098-30.509098 0-16.995001 13.718856-30.713857 30.509098-30.713857h98.489103c16.995001 0 30.509098 13.718856 30.509098 30.509098 0 16.995001-13.718856 30.509098-30.509098 30.509098H585.713257V100.331934c38.494701 3.890422 72.075185 27.847231 88.046391 62.861027h137.80284c5.733253 0 10.237952 4.504699 10.237952 10.237953s-4.504699 10.237952-10.237952 10.237952h-144.559889c-4.29994 0-8.190362-2.661868-9.623675-6.757048-16.790242-45.25175-67.160968-68.184763-112.412717-51.189762-23.75205 8.804639-42.385123 27.642472-51.189762 51.189762-1.433313 4.095181-5.323735 6.757049-9.623676 6.757048H374.811438c-31.328134 0-56.718256 25.390122-56.718257 56.718257V294.853029h49.142172v-30.09958c0-18.428314 14.947411-33.375725 33.375725-33.375725h83.541691c4.29994 0 8.190362 2.661868 9.623676 6.757049 16.790242 45.25175 67.160968 68.184763 112.412717 51.394521 23.75205-8.804639 42.385123-27.642472 51.394521-51.394521 1.433313-4.095181 5.323735-6.757049 9.623676-6.757049h144.559888c5.733253 0 10.237952 4.504699 10.237952 10.237953s-4.504699 10.237952-10.237952 10.237952h-137.80284c-24.571086 54.261148-88.25115 78.422715-142.512297 53.85163-23.956809-10.85223-43.204159-29.894821-53.85163-53.85163h-76.579884c-7.166567 0-12.89982 5.733253-12.89982 12.89982V305.090982c0 5.733253-4.504699 10.237952-10.237953 10.237952h-69.618076c-5.938012 0-10.647471-4.504699-10.64747-10.237952zM625.026995 40.747051c5.528494 0 10.033193-4.504699 10.033193-10.033194s-4.504699-10.033193-10.033193-10.033193H526.333133c-5.528494 0-10.033193 4.504699-10.033193 10.033193s4.504699 10.033193 10.033193 10.033194h98.693862zM272.636673 711.537692c42.589882 31.532893 100.741452 31.532893 143.331333 0 72.894221-53.85163 92.141572-154.79784 44.023196-231.582483L389.144571 366.518696c-3.071386-4.709458-9.418916-6.142771-14.128374-3.071385-4.709458 3.071386-6.142771 9.214157-3.276145 13.923615l70.641872 113.231753c41.975605 67.980004 24.980604 156.640672-38.90422 204.349531a99.826179 99.826179 0 0 1-118.965007 0c-63.884823-47.708858-80.879824-136.369526-38.904219-204.349531l70.641872-113.231753c3.071386-4.709458 1.433313-11.056989-3.276145-14.128375s-11.056989-1.433313-14.128374 3.276145l-70.641872 113.231754c-47.708858 76.989402-28.461508 177.730854 44.432714 231.787242z" fill="#1C1D21" p-id="504"></path></svg>