<?xml version="1.0" standalone="no"?><!DOCTYPE svg PUBLIC "-//W3C//DTD SVG 1.1//EN" "http://www.w3.org/Graphics/SVG/1.1/DTD/svg11.dtd"><svg t="1547014209562" class="icon" style="" viewBox="0 0 1024 1024" version="1.1" xmlns="http://www.w3.org/2000/svg" p-id="58199" xmlns:xlink="http://www.w3.org/1999/xlink" width="16" height="16"><defs><style type="text/css"></style></defs><path d="M960 64H64c-32 0-64 32-64 64v768c0 32 32 64 64 64h896c32 0 64-32 64-64V128c0-32-32-64-64-64z m0 832H64V128h896v768z" fill="#727272" p-id="58200"></path><path d="M0 320V128c0-32 32-64 64-64h896c38.4 0 64 32 64 64v192H0z" fill="#039C23" p-id="58201"></path><path d="M64 128h896v128H64z" fill="#FFFFFF" p-id="58202"></path><path d="M64 320h896v576H64z" fill="#FFFFFF" p-id="58203"></path><path d="M320 768h-57.6V537.6c-19.2 19.2-44.8 38.4-70.4 44.8v-51.2c12.8-6.4 32-19.2 44.8-32 19.2-12.8 32-32 38.4-51.2H320v320zM768 768h-57.6V537.6c-19.2 19.2-44.8 38.4-70.4 44.8v-51.2c12.8-6.4 32-12.8 44.8-32 19.2-12.8 32-32 38.4-51.2h44.8v320zM480 448c25.6 0 51.2 12.8 64 32 19.2 25.6 32 70.4 32 128 0 57.6-12.8 102.4-32 128-12.8 19.2-38.4 32-64 32s-51.2-12.8-70.4-32c-19.2-25.6-25.6-64-25.6-128 0-57.6 12.8-102.4 32-128 12.8-19.2 38.4-32 64-32z m0 51.2c-6.4 0-12.8 0-19.2 6.4s-6.4 12.8-12.8 25.6c0 12.8-6.4 38.4-6.4 76.8s0 64 6.4 76.8c6.4 12.8 6.4 25.6 12.8 25.6s12.8 6.4 19.2 6.4 12.8 0 19.2-6.4c6.4-6.4 6.4-12.8 12.8-25.6s6.4-38.4 6.4-76.8 0-64-6.4-76.8c-6.4-12.8-6.4-19.2-12.8-25.6-6.4-6.4-12.8-6.4-19.2-6.4z" fill="#727272" p-id="58204"></path></svg>