<?xml version="1.0" standalone="no"?><!DOCTYPE svg PUBLIC "-//W3C//DTD SVG 1.1//EN" "http://www.w3.org/Graphics/SVG/1.1/DTD/svg11.dtd"><svg t="1548912478064" class="icon" style="" viewBox="0 0 1024 1024" version="1.1" xmlns="http://www.w3.org/2000/svg" p-id="46376" xmlns:xlink="http://www.w3.org/1999/xlink" width="16" height="16"><defs><style type="text/css"></style></defs><path d="M104.448 338.033778h103.082667c11.832889 0 21.390222 9.557333 21.390222 21.333333v103.082667a21.333333 21.333333 0 0 1-21.390222 21.333333H104.448a21.333333 21.333333 0 0 1-21.333333-21.333333V359.367111c0-11.776 9.557333-21.333333 21.333333-21.333333z m81.749333 42.666666H125.781333v60.416h60.416V380.700444zM321.422222 338.033778h103.139556c11.776 0 21.333333 9.557333 21.333333 21.333333v103.082667a21.333333 21.333333 0 0 1-21.333333 21.333333H321.422222a21.333333 21.333333 0 0 1-21.333333-21.333333V359.367111c0-11.776 9.557333-21.333333 21.333333-21.333333z m81.806222 42.666666H342.755556v60.416h60.472888V380.700444zM538.453333 338.033778h103.082667c11.776 0 21.333333 9.557333 21.333333 21.333333v103.082667a21.333333 21.333333 0 0 1-21.333333 21.333333H538.453333a21.333333 21.333333 0 0 1-21.333333-21.333333V359.367111c0-11.776 9.557333-21.333333 21.333333-21.333333z m81.749334 42.666666H559.786667v60.416h60.416V380.700444zM104.448 543.004444h103.082667c11.832889 0 21.390222 9.557333 21.390222 21.333334v103.139555a21.333333 21.333333 0 0 1-21.390222 21.333334H104.448a21.333333 21.333333 0 0 1-21.333333-21.333334V564.337778c0-11.776 9.557333-21.333333 21.333333-21.333334z m81.749333 42.666667H125.781333v60.472889h60.416v-60.472889zM321.422222 543.004444h103.139556c11.776 0 21.333333 9.557333 21.333333 21.333334v103.139555a21.333333 21.333333 0 0 1-21.333333 21.333334H321.422222a21.333333 21.333333 0 0 1-21.333333-21.333334V564.337778c0-11.776 9.557333-21.333333 21.333333-21.333334z m81.806222 42.666667H342.755556v60.472889h60.472888v-60.472889zM538.453333 543.004444h103.082667c11.776 0 21.333333 9.557333 21.333333 21.333334v103.139555a21.333333 21.333333 0 0 1-21.333333 21.333334H538.453333a21.333333 21.333333 0 0 1-21.333333-21.333334V564.337778c0-11.776 9.557333-21.333333 21.333333-21.333334z m81.749334 42.666667H559.786667v60.472889h60.416v-60.472889zM104.448 748.032h103.082667c11.832889 0 21.390222 9.557333 21.390222 21.333333v103.082667a21.333333 21.333333 0 0 1-21.390222 21.333333H104.448a21.333333 21.333333 0 0 1-21.333333-21.333333v-103.082667c0-11.776 9.557333-21.333333 21.333333-21.333333z m81.749333 42.666667H125.781333v60.416h60.416V790.755556zM321.422222 748.032h103.139556c11.776 0 21.333333 9.557333 21.333333 21.333333v103.082667a21.333333 21.333333 0 0 1-21.333333 21.333333H321.422222a21.333333 21.333333 0 0 1-21.333333-21.333333v-103.082667c0-11.776 9.557333-21.333333 21.333333-21.333333z m81.806222 42.666667H342.755556v60.416h60.472888V790.755556zM538.453333 748.032h103.082667c11.776 0 21.333333 9.557333 21.333333 21.333333v103.082667a21.333333 21.333333 0 0 1-21.333333 21.333333H538.453333a21.333333 21.333333 0 0 1-21.333333-21.333333v-103.082667c0-11.776 9.557333-21.333333 21.333333-21.333333z m81.749334 42.666667H559.786667v60.416h60.416V790.755556z" fill="#2D8CF0" p-id="46377"></path><path d="M21.333333 250.88h703.317334c11.776 0 21.333333 9.557333 21.333333 21.333333v687.331556a21.333333 21.333333 0 0 1-21.333333 21.333333H21.333333A21.333333 21.333333 0 0 1 0 959.544889V272.213333c0-11.776 9.557333-21.333333 21.333333-21.333333z m681.984 42.666667H42.666667v644.664889h660.650666V293.546667z" fill="#2D8CF0" p-id="46378"></path><path d="M21.333333 43.121778h703.317334c11.776 0 21.333333 9.500444 21.333333 21.333333v207.758222a21.333333 21.333333 0 0 1-21.333333 21.333334H21.333333A21.333333 21.333333 0 0 1 0 272.213333V64.455111C0 52.622222 9.557333 43.121778 21.333333 43.121778z m681.984 42.666666H42.666667V250.88h660.650666V85.788444zM1002.666667 980.878222h-166.001778a21.333333 21.333333 0 0 1-21.333333-21.333333v-739.555556c0-4.266667 1.251556-8.305778 3.413333-11.662222L900.949333 54.442667l18.773334 10.012444-18.830223-10.069333a21.333333 21.333333 0 0 1 38.456889 1.706666l82.147556 153.941334V209.92c1.820444 3.299556 2.616889 6.826667 2.56 10.296889v739.271111a21.333333 21.333333 0 0 1-21.333333 21.333333z m-144.668445-42.666666h123.335111V225.166222l-61.667555-115.598222-61.667556 115.598222v713.045334z" fill="#2D8CF0" p-id="46379"></path><path d="M1002.666667 241.265778a21.276444 21.276444 0 0 0 0-42.496h-166.001778a21.276444 21.276444 0 0 0 0 42.496h166.001778zM836.664889 816.924444a21.333333 21.333333 0 0 0 0 42.666667h166.001778a21.333333 21.333333 0 0 0 0-42.666667h-166.001778z" fill="#2D8CF0" p-id="46380"></path></svg>