<?xml version="1.0" standalone="no"?><!DOCTYPE svg PUBLIC "-//W3C//DTD SVG 1.1//EN" "http://www.w3.org/Graphics/SVG/1.1/DTD/svg11.dtd"><svg t="1547011945543" class="icon" style="" viewBox="0 0 1024 1024" version="1.1" xmlns="http://www.w3.org/2000/svg" p-id="7820" xmlns:xlink="http://www.w3.org/1999/xlink" width="16" height="16"><defs><style type="text/css"></style></defs><path d="M960 64H64c-32 0-64 32-64 64v768c0 32 32 64 64 64h896c32 0 64-32 64-64V128c0-32-32-64-64-64z m0 832H64V128h896v768z" fill="#727272" p-id="7821"></path><path d="M0 320V128c0-32 32-64 64-64h896c38.4 0 64 32 64 64v192H0z" fill="#039C23" p-id="7822"></path><path d="M64 128h896v128H64z" fill="#FFFFFF" p-id="7823"></path><path d="M64 320h896v576H64z" fill="#FFFFFF" p-id="7824"></path><path d="M480 800l-192-192 64-64 128 128 256-256 64 64z" fill="#727272" p-id="7825"></path></svg>