<?xml version="1.0" standalone="no"?><!DOCTYPE svg PUBLIC "-//W3C//DTD SVG 1.1//EN" "http://www.w3.org/Graphics/SVG/1.1/DTD/svg11.dtd"><svg t="1546496295538" class="icon" style="" viewBox="0 0 1024 1024" version="1.1" xmlns="http://www.w3.org/2000/svg" p-id="1990" xmlns:xlink="http://www.w3.org/1999/xlink" width="16" height="16"><defs><style type="text/css"></style></defs><path d="M853.333333 42.666667H170.666667c-46.933333 0-85.333333 38.4-85.333334 85.333333v768c0 46.933333 38.4 85.333333 85.333334 85.333333h298.666666c25.6 0 42.666667-17.066667 42.666667-42.666666s-17.066667-42.666667-42.666667-42.666667H170.666667V128h682.666666v341.333333c0 25.6 17.066667 42.666667 42.666667 42.666667s42.666667-17.066667 42.666667-42.666667V128c0-46.933333-38.4-85.333333-85.333334-85.333333z" fill="#ff0000" p-id="1991"></path><path d="M256 469.333333h256c25.6 0 42.666667-17.066667 42.666667-42.666666s-17.066667-42.666667-42.666667-42.666667H256c-25.6 0-42.666667 17.066667-42.666667 42.666667s17.066667 42.666667 42.666667 42.666666zM853.333333 640h-337.066666l106.666666-98.133333c17.066667-17.066667 21.333333-42.666667 4.266667-59.733334s-42.666667-17.066667-59.733333-4.266666l-192 170.666666c-8.533333 8.533333-12.8 21.333333-12.8 29.866667s4.266667 25.6 12.8 29.866667l192 170.666666c8.533333 8.533333 17.066667 12.8 29.866666 12.8 12.8 0 21.333333-4.266667 29.866667-12.8 17.066667-17.066667 12.8-42.666667-4.266667-59.733333L516.266667 725.333333H853.333333v170.666667h-213.333333c-25.6 0-42.666667 17.066667-42.666667 42.666667s17.066667 42.666667 42.666667 42.666666h213.333333c46.933333 0 85.333333-38.4 85.333334-85.333333v-170.666667c0-46.933333-38.4-85.333333-85.333334-85.333333zM256 298.666667h512c25.6 0 42.666667-17.066667 42.666667-42.666667s-17.066667-42.666667-42.666667-42.666667H256c-25.6 0-42.666667 17.066667-42.666667 42.666667s17.066667 42.666667 42.666667 42.666667z" fill="#ff0000" p-id="1992"></path></svg>