<?xml version="1.0" standalone="no"?><!DOCTYPE svg PUBLIC "-//W3C//DTD SVG 1.1//EN" "http://www.w3.org/Graphics/SVG/1.1/DTD/svg11.dtd"><svg t="1548713075260" class="icon" style="" viewBox="0 0 1024 1024" version="1.1" xmlns="http://www.w3.org/2000/svg" p-id="4124" xmlns:xlink="http://www.w3.org/1999/xlink" width="16" height="16"><defs><style type="text/css"></style></defs><path d="M933.888 960.512c8.704 12.288 8.704 29.184 0 41.472-6.144 6.144-12.288 8.704-20.48 8.704s-14.336-3.072-20.48-8.704l-121.344-125.952-121.344 125.952c-6.144 6.144-12.288 8.704-20.48 8.704s-14.336-3.072-20.48-8.704c-5.632-6.144-8.704-12.288-8.704-20.48s2.56-14.848 8.704-20.48l121.856-125.952-121.856-125.952c-5.632-6.144-8.704-12.288-8.704-20.48s2.56-14.848 8.704-20.48c6.144-6.144 12.288-8.704 20.48-8.704s14.336 3.072 20.48 8.704l121.344 125.952 121.344-125.952c6.144-6.144 12.288-8.704 20.48-8.704s14.336 3.072 20.48 8.704c5.632 6.144 8.704 12.288 8.704 20.48s-2.56 14.848-8.704 20.48l-121.856 125.952 121.856 125.44z" fill="#ff0000" p-id="4125"></path><path d="M220.672 1010.688c-87.04 0-157.184-73.216-157.184-162.304V175.616c0-90.112 70.656-162.304 157.184-162.304H783.36c87.04 0 157.184 73.216 157.184 162.304v404.992c0 14.848-11.776 27.136-26.624 27.136s-26.624-12.288-26.624-27.136V175.616c0-58.368-45.568-105.472-101.376-105.472H223.232c-56.32 0-101.376 47.104-101.376 105.472v672.768c0 58.368 45.568 105.472 101.376 105.472h265.216c14.848 0 26.624 12.288 26.624 27.136s-13.824 29.696-28.672 29.696H220.672z" fill="#ff0000" p-id="4126"></path><path d="M675.84 286.72H309.76c-13.824 0-23.04-9.728-23.04-23.552s9.216-23.552 23.04-23.552H675.84c13.824 0 23.04 9.728 23.04 23.552S687.616 286.72 675.84 286.72z m0 237.056H309.76c-13.824 0-23.04-9.728-23.04-23.552s9.216-23.552 23.04-23.552H675.84c13.824 0 23.04 9.728 23.04 23.552s-11.264 23.552-23.04 23.552z m0-230.912H309.76c-16.896 0-28.672-12.288-28.672-29.696s11.776-29.696 28.672-29.696H675.84c16.896 0 28.672 12.288 28.672 29.696 0.512 16.896-12.8 29.696-28.672 29.696z m0 237.056H309.76c-16.896 0-28.672-12.288-28.672-29.696s11.776-29.696 28.672-29.696H675.84c16.896 0 28.672 12.288 28.672 29.696 0.512 16.896-12.8 29.696-28.672 29.696z m-366.08 224.768c-16.896 0-28.672-12.288-28.672-29.696s11.776-29.696 28.672-29.696h182.784c16.896 0 28.672 12.288 28.672 29.696 0 16.896-13.312 29.696-28.672 29.696H309.76z" fill="#ff0000" p-id="4127"></path></svg>