<?xml version="1.0" standalone="no"?><!DOCTYPE svg PUBLIC "-//W3C//DTD SVG 1.1//EN" "http://www.w3.org/Graphics/SVG/1.1/DTD/svg11.dtd"><svg t="1549452300709" class="icon" style="" viewBox="0 0 1024 1024" version="1.1" xmlns="http://www.w3.org/2000/svg" p-id="66914" xmlns:xlink="http://www.w3.org/1999/xlink" width="16" height="16"><defs><style type="text/css"></style></defs><path d="M989.59 246.293c45.845-45.888 45.845-120.554 0-166.442-22.273-22.23-51.798-34.475-83.243-34.475-31.424 0-60.992 12.224-82.496 33.792L606.229 277.44c-13.44 13.483-33.941 18.347-52.074 12.288l-119.616-39.893c-33.323-11.094-70.955-2.176-95.808 22.634L234.048 377.152c-4.01 3.99-6.25 9.43-6.25 15.104 0 5.675 2.24 11.093 6.25 15.104l408.747 408.747a21.208 21.208 0 0 0 15.082 6.272c5.504 0 10.966-2.048 15.126-6.294l104.704-104.661c25.258-25.195 33.92-61.91 22.634-95.787L760.47 496c-6.122-18.453-1.386-38.379 11.584-51.392L989.59 246.293zM719.914 509.547l39.829 119.616c6.123 18.41 1.408 38.378-12.288 52.074l-89.621 89.536-378.518-378.517 89.6-89.557c13.483-13.483 34.006-18.347 52.075-12.31l119.68 39.894c33.259 11.114 71.339 1.941 95.083-21.931L853.333 110.08c28.331-28.352 77.718-28.352 106.048 0 29.206 29.227 29.206 76.8 0.704 105.387L742.55 413.717c-25.301 25.216-33.962 61.931-22.634 95.83zM213.141 428.224c-8-8-22.229-8-30.229 0-42.752 42.795-124.544 83.392-169.088 100.224-6.805 2.624-11.819 8.448-13.333 15.53a21.354 21.354 0 0 0 5.781 19.606l408.79 408.79c4.074 4.031 9.535 6.271 15.103 6.271 2.539 0 5.078-0.469 7.574-1.344 41.301-15.637 132.949-58.794 184.17-110.037 8.363-8.405 8.363-21.845 0-30.208L213.141 428.224z m222.166 504.021L59.05 555.968c40.725-18.219 97.386-48.17 138.325-83.03l378.453 378.454c-40.32 33.515-100.138 64.192-140.522 80.853z" fill="#f74906" p-id="66915"></path><path d="M896.427 210.56c19.968 0 36.16-16.17 36.16-36.139 0-19.925-16.256-36.117-36.16-36.096-19.862 0-36.054 16.15-36.054 36.096-0.021 19.968 16.171 36.139 36.054 36.139z" fill="#f74906" p-id="66916"></path></svg>