<?xml version="1.0" standalone="no"?><!DOCTYPE svg PUBLIC "-//W3C//DTD SVG 1.1//EN" "http://www.w3.org/Graphics/SVG/1.1/DTD/svg11.dtd"><svg t="1548715012907" class="icon" style="" viewBox="0 0 1024 1024" version="1.1" xmlns="http://www.w3.org/2000/svg" p-id="44857" xmlns:xlink="http://www.w3.org/1999/xlink" width="16" height="16"><defs><style type="text/css"></style></defs><path d="M704 335.73a20.81 20.81 0 0 0-20.72-20.85H331.44a20.81 20.81 0 0 0-20.72 20.85v25.67H704zM761 365.7l-0.39-0.16zM764.34 367.27a54.63 54.63 0 0 1 23.51 23.22 54.62 54.62 0 0 0-23.51-23.22zM758.25 603.85V416a18.45 18.45 0 0 0-18.37-18.48h-465a18.45 18.45 0 0 0-18.4 18.48v329.14c0 4.75 1.53 9.06 4.18 11.83q7.15 7.45 14.74 14.45A342 342 0 0 0 639 835.88a151.77 151.77 0 0 1-23-80.47c0-80.92 63-147.05 142.25-151.56zM328.82 456.32H679a18.05 18.05 0 0 1 0 36.1H328.82a18.05 18.05 0 0 1 0-36.1z m-17.94 220a18 18 0 0 1 17.94-18.05h170.85a18.05 18.05 0 0 1 0 36.1H328.82a18 18 0 0 1-17.94-18.06z m17.94-88.38a18.05 18.05 0 0 1 0-36.1H679a18.05 18.05 0 0 1 0 36.1z" fill="#FFFFFF" p-id="44858"></path><path d="M234.86 782c-9.43-9.83-14.26-23.25-14.26-36.91V416a54.41 54.41 0 0 1 54.24-54.58A54.41 54.41 0 0 0 220.6 416v329.14c0 13.66 4.82 27.08 14.26 36.91q2.58 2.69 5.21 5.31-2.63-2.63-5.21-5.36zM245.72 792.91q2.7 2.59 5.44 5.13a380 380 0 0 0 77 55 380 380 0 0 1-77-55q-2.75-2.54-5.44-5.13z" fill="#FFFFFF" p-id="44859"></path><path d="M696.92 569.89A18 18 0 0 0 679 551.83H328.82a18.05 18.05 0 0 0 0 36.1H679a18 18 0 0 0 17.92-18.04zM328.82 492.42H679a18.05 18.05 0 0 0 0-36.1H328.82a18.05 18.05 0 0 0 0 36.1zM517.61 676.31a18 18 0 0 0-17.94-18.05H328.82a18.05 18.05 0 0 0 0 36.1h170.85a18 18 0 0 0 17.94-18.05z" fill="#1296db" p-id="44860" data-spm-anchor-id="a313x.7781069.0.i17" class="selected"></path><path d="M875.28 649.82A402 402 0 0 0 905 498c0-220.62-178.37-400.11-397.63-400.11S109.72 277.38 109.72 498A399.81 399.81 0 0 0 207 760a408.12 408.12 0 0 0 32 33.14 394.81 394.81 0 0 0 216.64 101.6 378.88 378.88 0 0 0 103.52 0A393.9 393.9 0 0 0 663.57 866a149.83 149.83 0 0 0 103.33 41.21c83.32 0 150.86-68 150.86-151.8a151.78 151.78 0 0 0-42.48-105.59zM234.85 782c-9.43-9.83-14.26-23.25-14.26-36.91v-25.37a364 364 0 0 1-75-221.7c0-200.72 162.29-364 361.76-364S869.13 297.3 869.13 498A365.84 365.84 0 0 1 846 626.13a149.35 149.35 0 0 0-51.87-20.06V416a54.63 54.63 0 0 0-29.79-48.72c-1.1-0.56-2.2-1.09-3.34-1.58l-0.39-0.16a53.77 53.77 0 0 0-20.72-4.13v-25.68a56.78 56.78 0 0 0-56.6-57H331.44a56.78 56.78 0 0 0-56.6 57v25.67A54.41 54.41 0 0 0 220.6 416v329.14c0 13.66 4.82 27.08 14.26 36.91q2.58 2.69 5.21 5.31-2.63-2.63-5.22-5.36zM639 835.88a342 342 0 0 1-363.6-64.46q-7.58-7-14.74-14.45c-2.66-2.77-4.18-7.08-4.18-11.83V416a18.45 18.45 0 0 1 18.37-18.48h465a18.45 18.45 0 0 1 18.4 18.48v187.85C679 608.36 616 674.49 616 755.41a151.77 151.77 0 0 0 23 80.47zM310.72 335.73a20.81 20.81 0 0 1 20.72-20.85h351.85A20.81 20.81 0 0 1 704 335.73v25.67H310.72zM251.16 798q-2.75-2.53-5.44-5.13 2.7 2.59 5.44 5.13a380 380 0 0 0 77 55 380 380 0 0 1-77-55z m586.1 21.44a12.52 12.52 0 0 1-17.65 0l-48.68-48.66-48.78 48.76a12.27 12.27 0 0 1-17.3 0l-0.35-0.35a12.26 12.26 0 0 1 0-17.3l48.78-48.76-48.65-48.63a12.48 12.48 0 0 1 17.66-17.65l48.65 48.63 48.91-48.89a12.27 12.27 0 0 1 17.3 0l0.35 0.35a12.26 12.26 0 0 1 0 17.3l-48.91 48.89 48.68 48.66a12.52 12.52 0 0 1-0.01 17.69z" fill="#ff0000" p-id="44861" data-spm-anchor-id="a313x.7781069.0.i14" class=""></path><path d="M788.58 753.17l48.91-48.89a12.26 12.26 0 0 0 0-17.3l-0.35-0.35a12.27 12.27 0 0 0-17.3 0l-48.91 48.89-48.65-48.63a12.48 12.48 0 0 0-17.66 17.65l48.65 48.63-48.78 48.76a12.26 12.26 0 0 0 0 17.3l0.35 0.35a12.27 12.27 0 0 0 17.3 0l48.78-48.76 48.68 48.66a12.48 12.48 0 0 0 17.65-17.65z" fill="#FFFFFF" p-id="44862"></path></svg>