<?xml version="1.0" standalone="no"?><!DOCTYPE svg PUBLIC "-//W3C//DTD SVG 1.1//EN" "http://www.w3.org/Graphics/SVG/1.1/DTD/svg11.dtd"><svg t="1559782203666" class="icon" style="" viewBox="0 0 1024 1024" version="1.1" xmlns="http://www.w3.org/2000/svg" p-id="2351" xmlns:xlink="http://www.w3.org/1999/xlink" width="16" height="16"><defs><style type="text/css"></style></defs><path d="M0 0h1024v1024H0z" fill="#ffffff" p-id="2352" data-spm-anchor-id="a313x.7781069.0.i3" class=""></path><path d="M810.666667 861.866667H213.333333c-17.066667 0-29.866667-12.8-29.866666-25.6V388.266667c0-17.066667 12.8-25.6 29.866666-25.6h200.533334v-170.666667c0-17.066667 12.8-25.6 29.866666-25.6h145.066667c17.066667 0 29.866667 12.8 29.866667 25.6v170.666667H810.666667c17.066667 0 29.866667 12.8 29.866666 25.6v443.733333c0 17.066667-12.8 29.866667-29.866666 29.866667zM238.933333 806.4h541.866667V413.866667h-200.533333c-17.066667 0-29.866667-12.8-29.866667-25.6v-170.666667H469.333333v170.666667c0 17.066667-12.8 25.6-29.866666 25.6H238.933333v392.533333z" fill="#ff0000" p-id="2353" data-spm-anchor-id="a313x.7781069.0.i0" class=""></path><path d="M806.4 580.266667H217.6c-17.066667 0-29.866667-12.8-29.866667-25.6s12.8-25.6 29.866667-25.6h588.8c17.066667 0 29.866667 12.8 29.866667 25.6s-17.066667 25.6-29.866667 25.6zM413.866667 849.066667c-17.066667 0-29.866667-12.8-29.866667-25.6v-149.333334c0-17.066667 12.8-25.6 29.866667-25.6s29.866667 12.8 29.866666 25.6v149.333334c0 12.8-12.8 25.6-29.866666 25.6zM610.133333 849.066667c-17.066667 0-29.866667-12.8-29.866666-25.6v-149.333334c0-17.066667 12.8-25.6 29.866666-25.6s29.866667 12.8 29.866667 25.6v149.333334c-4.266667 12.8-17.066667 25.6-29.866667 25.6z" fill="#ff0000" p-id="2354" data-spm-anchor-id="a313x.7781069.0.i1" class="selected"></path></svg>