<?xml version="1.0" standalone="no"?><!DOCTYPE svg PUBLIC "-//W3C//DTD SVG 1.1//EN" "http://www.w3.org/Graphics/SVG/1.1/DTD/svg11.dtd"><svg t="1548713186320" class="icon" style="" viewBox="0 0 1024 1024" version="1.1" xmlns="http://www.w3.org/2000/svg" p-id="4299" xmlns:xlink="http://www.w3.org/1999/xlink" width="16" height="16"><defs><style type="text/css"></style></defs><path d="M921.51897 0.469118h-816.777643a102.438382 102.438382 0 0 0-102.097206 102.097206v816.82029a102.48103 102.48103 0 0 0 102.097206 102.139853h153.145808a51.09125 51.09125 0 0 0 0-102.097205h-51.048603a102.438382 102.438382 0 0 1-102.097205-102.139853v-612.583233a102.438382 102.438382 0 0 1 102.097205-102.139852h612.62588a102.48103 102.48103 0 0 1 102.097206 102.139852v51.048603a51.005956 51.005956 0 1 0 102.054558 0v-153.145808a102.48103 102.48103 0 0 0-102.097206-102.139853z" fill="#ff0000" p-id="4300"></path><path d="M206.838532 357.809337v-102.097205h408.431469v102.097205h-408.431469m0 204.194411v-102.097205h326.719587v102.097205h-326.719587m0 204.237058v-102.139852h245.050352v102.139852h-245.050352M839.807088 817.246762l127.642831-127.64283a24.650035 24.650035 0 0 0 0-35.69564l-35.738287-35.738287a24.650035 24.650035 0 0 0-35.738286 0l-127.600184 127.600184-122.525176-122.525176a24.73533 24.73533 0 0 0-35.738286 0l-35.738287 35.738286a24.73533 24.73533 0 0 0 0 35.738287l122.525176 122.525176-127.600183 127.600183c-10.235309 10.235309-10.235309 25.588272 0 35.738287l35.695639 35.780934c10.235309 10.150015 25.545625 10.150015 35.738287 0l127.64283-127.642831 122.482529 122.525176c10.235309 10.235309 25.588272 10.235309 35.738287 0l35.738286-35.738287a24.650035 24.650035 0 0 0 0-35.738286l-122.525176-122.525176z" fill="#ff0000" p-id="4301"></path></svg>