<?xml version="1.0" standalone="no"?><!DOCTYPE svg PUBLIC "-//W3C//DTD SVG 1.1//EN" "http://www.w3.org/Graphics/SVG/1.1/DTD/svg11.dtd"><svg t="1548713397442" class="icon" style="" viewBox="0 0 1024 1024" version="1.1" xmlns="http://www.w3.org/2000/svg" p-id="39452" xmlns:xlink="http://www.w3.org/1999/xlink" width="16" height="16"><defs><style type="text/css"></style></defs><path d="M415.641261 122.946723c-17.858183 0-32.380222 14.522039-32.380222 32.380222s14.522039 32.380222 32.380222 32.380222H590.200096c17.858183 0 32.380222-14.522039 32.380222-32.380222s-14.522039-32.380222-32.380222-32.380222H415.641261z m0-59.85435H590.200096c50.925259 0 92.234573 41.309314 92.234572 92.234572s-41.309314 92.234573-92.234572 92.234573H415.641261c-50.925259 0-92.234573-41.309314-92.234573-92.234573s41.309314-92.234573 92.234573-92.234572z" fill="#ff0000" p-id="39453"></path><path d="M374.037581 124.614795v59.85435H245.203545c-31.20276 0-56.518206 25.315447-56.518206 56.518206v577.643542c0 31.20276 25.315447 56.518206 56.518206 56.518206h515.336145c31.20276 0 56.518206-25.315447 56.518206-56.518206V240.987351c0-31.20276-25.315447-56.518206-56.518206-56.518206H659.179782v-59.85435h101.359908c64.269835 0 116.372557 52.102721 116.372556 116.372556v577.643542c0 64.269835-52.102721 116.372557-116.372556 116.372557H245.203545c-64.269835 0-116.372557-52.102721-116.372556-116.372557V240.987351c0-64.269835 52.102721-116.372557 116.372556-116.372556h128.834036z" fill="#ff0000" p-id="39454"></path><path d="M298.979504 374.471528l48.220101-48.221784 358.506413 358.4939-48.2201 48.221784z" fill="#ff0000" p-id="39455"></path><path d="M299.574057 685.338493l358.4939-358.506414 48.221784 48.220101L347.795841 733.558593z" fill="#ff0000" p-id="39456"></path></svg>