<?xml version="1.0" standalone="no"?><!DOCTYPE svg PUBLIC "-//W3C//DTD SVG 1.1//EN" "http://www.w3.org/Graphics/SVG/1.1/DTD/svg11.dtd"><svg t="1547011931481" class="icon" style="" viewBox="0 0 1024 1024" version="1.1" xmlns="http://www.w3.org/2000/svg" p-id="6869" xmlns:xlink="http://www.w3.org/1999/xlink" width="16" height="16"><defs><style type="text/css"></style></defs><path d="M960 64H64c-32 0-64 32-64 64v768c0 32 32 64 64 64h896c32 0 64-32 64-64V128c0-32-32-64-64-64z m0 832H64V128h896v768z" fill="#727272" p-id="6870"></path><path d="M0 320V128c0-32 32-64 64-64h896c38.4 0 64 32 64 64v192H0z" fill="#039C23" p-id="6871"></path><path d="M64 128h896v128H64z" fill="#FFFFFF" p-id="6872"></path><path d="M64 320h896v576H64z" fill="#FFFFFF" p-id="6873"></path><path d="M512 608m-224 0a224 224 0 1 0 448 0 224 224 0 1 0-448 0Z" fill="#727272" p-id="6874"></path><path d="M512 640V448H448v256h192v-64z" fill="#FFFFFF" p-id="6875"></path></svg>