<?xml version="1.0" standalone="no"?><!DOCTYPE svg PUBLIC "-//W3C//DTD SVG 1.1//EN" "http://www.w3.org/Graphics/SVG/1.1/DTD/svg11.dtd"><svg t="1547089455171" class="icon" style="" viewBox="0 0 1279 1024" version="1.1" xmlns="http://www.w3.org/2000/svg" p-id="1440" xmlns:xlink="http://www.w3.org/1999/xlink" width="19.984375" height="16"><defs><style type="text/css"></style></defs><path d="M1263.252336 1024H15.950156c-9.570093 0-15.950156-6.380062-15.950156-15.950156V15.950156C0 6.380062 6.380062 0 15.950156 0h1247.30218c9.570093 0 15.950156 6.380062 15.950156 15.950156v992.099688c0 9.570093-6.380062 15.950156-15.950156 15.950156zM31.900312 992.099688h1215.401869V31.900312H31.900312v960.199376z" fill="#5AA0DE" p-id="1441"></path><path d="M1234.542056 315.813084H15.950156c-9.570093 0-15.950156-6.380062-15.950156-15.950156s6.380062-15.950156 15.950156-15.950155h1218.5919c9.570093 0 15.950156 6.380062 15.950156 15.950155s-6.380062 15.950156-15.950156 15.950156zM1065.470405 513.595016H695.426791c-9.570093 0-15.950156-6.380062-15.950155-15.950156s6.380062-15.950156 15.950155-15.950156h370.043614c9.570093 0 15.950156 6.380062 15.950156 15.950156s-6.380062 15.950156-15.950156 15.950156zM944.249221 641.196262h-258.392523c-9.570093 0-15.950156-6.380062-15.950156-15.950156s6.380062-15.950156 15.950156-15.950156h258.392523c9.570093 0 15.950156 6.380062 15.950156 15.950156s-6.380062 15.950156-15.950156 15.950156zM893.208723 797.507788h-194.591901c-9.570093 0-15.950156-6.380062-15.950155-15.950156s6.380062-15.950156 15.950155-15.950155H893.208723c9.570093 0 15.950156 6.380062 15.950156 15.950155s-6.380062 15.950156-15.950156 15.950156zM526.35514 797.507788H213.732087c-9.570093 0-15.950156-6.380062-15.950156-15.950156v-312.623053c0-9.570093 6.380062-15.950156 15.950156-15.950155h312.623053c9.570093 0 15.950156 6.380062 15.950156 15.950155v312.623053c0 9.570093-6.380062 15.950156-15.950156 15.950156z m-296.672897-31.900311H510.404984v-280.722742H229.682243V765.607477zM159.501558 216.922118C127.601246 216.922118 102.080997 191.401869 102.080997 159.501558S127.601246 102.080997 159.501558 102.080997 216.922118 127.601246 216.922118 159.501558 191.401869 216.922118 159.501558 216.922118z m0-82.94081c-12.760125 0-25.520249 12.760125-25.52025 25.52025s12.760125 25.520249 25.52025 25.520249 25.520249-12.760125 25.520249-25.520249-12.760125-25.520249-25.520249-25.52025zM328.573209 216.922118c-31.900312 0-57.420561-25.520249-57.420561-57.42056s25.520249-57.420561 57.420561-57.420561 57.420561 25.520249 57.42056 57.420561-25.520249 57.420561-57.42056 57.42056z m0-82.94081c-12.760125 0-25.520249 12.760125-25.520249 25.52025s12.760125 25.520249 25.520249 25.520249 25.520249-12.760125 25.520249-25.520249-12.760125-25.520249-25.520249-25.52025zM497.64486 213.732087c-31.900312 0-57.420561-25.520249-57.420561-57.420561s25.520249-57.420561 57.420561-57.42056 57.420561 25.520249 57.420561 57.42056-25.520249 57.420561-57.420561 57.420561z m0-82.94081c-12.760125 0-25.520249 12.760125-25.520249 25.520249s12.760125 25.520249 25.520249 25.52025 25.520249-12.760125 25.520249-25.52025-12.760125-25.520249-25.520249-25.520249z" fill="#5AA0DE" p-id="1442"></path></svg>