<?xml version="1.0" standalone="no"?><!DOCTYPE svg PUBLIC "-//W3C//DTD SVG 1.1//EN" "http://www.w3.org/Graphics/SVG/1.1/DTD/svg11.dtd"><svg t="1547604470771" class="icon" style="" viewBox="0 0 1024 1024" version="1.1" xmlns="http://www.w3.org/2000/svg" p-id="1982" xmlns:xlink="http://www.w3.org/1999/xlink" width="16" height="16"><defs><style type="text/css"></style></defs><path d="M960 0H192c-35.376 0-64 28.656-64 64v256h64V64h768v896H192V704h-64v256c0 35.376 28.624 64 64 64h768c35.376 0 64-28.624 64-64V64c0-35.344-28.624-64-64-64z" fill="#B0BEC5" p-id="1983"></path><path d="M384 704a63.76 63.76 0 0 1-45.248-18.752 63.984 63.984 0 0 1 0-90.504L357.504 576H128c-35.376 0-64-28.656-64-64s28.624-64 64-64h229.504l-18.752-18.752a63.984 63.984 0 0 1 0-90.504C351.248 326.248 367.624 320 384 320s32.752 6.248 45.248 18.752l128 128a63.984 63.984 0 0 1 0 90.504l-128 128A63.792 63.792 0 0 1 384 704m0 64c34.184 0 66.312-13.312 90.504-37.504l128-128C626.688 578.312 640 546.184 640 512s-13.312-66.312-37.504-90.504l-128-128C450.312 269.312 418.184 256 384 256s-66.312 13.312-90.504 37.504a127.632 127.632 0 0 0-37.44 90.504H128C57.44 384 0 441.408 0 512c0 70.56 57.44 128 128 128h128.064c0 32.784 12.504 65.56 37.44 90.504A127.12 127.12 0 0 0 384 768z" fill="#8BC34A" p-id="1984"></path><path d="M832 192v640h-64V192h64m64-64H704v768h192V128z" fill="#C5E1A5" p-id="1985"></path></svg>