<?xml version="1.0" standalone="no"?><!DOCTYPE svg PUBLIC "-//W3C//DTD SVG 1.1//EN" "http://www.w3.org/Graphics/SVG/1.1/DTD/svg11.dtd"><svg t="1559193945969" class="icon" style="" viewBox="0 0 1024 1024" version="1.1" xmlns="http://www.w3.org/2000/svg" p-id="2795" xmlns:xlink="http://www.w3.org/1999/xlink" width="16" height="16"><defs><style type="text/css"></style></defs><path d="M396.8 640c-53.76 0-99.84-40.96-99.84-92.16v-92.16c0-51.2 46.08-92.16 99.84-92.16h307.2V151.04c0-58.88-53.76-107.52-117.76-107.52H179.2c-64 0-117.76 48.64-117.76 107.52v734.72c0 58.88 53.76 107.52 117.76 107.52h407.04c64 0 117.76-48.64 117.76-107.52V640h-307.2z" fill="#79A7FF" p-id="2796"></path><path d="M760.32 524.8H384c-15.36 0-25.6-12.8-25.6-25.6s12.8-25.6 25.6-25.6h378.88c15.36 0 25.6 12.8 25.6 25.6s-12.8 25.6-28.16 25.6z" fill="#2A2A2A" p-id="2797"></path><path d="M980.48 509.44L793.6 614.4c-7.68 5.12-15.36 0-15.36-7.68v-215.04c0-7.68 7.68-12.8 15.36-7.68l184.32 107.52c7.68 2.56 7.68 12.8 2.56 17.92z" fill="#ff0000" p-id="2798" data-spm-anchor-id="a313x.7781069.0.i0" class="selected"></path><path d="M791.04 629.76c-5.12 0-10.24 0-12.8-2.56-7.68-5.12-12.8-12.8-12.8-23.04v-207.36c0-10.24 5.12-17.92 12.8-23.04s17.92-5.12 28.16 0l179.2 102.4c7.68 5.12 12.8 12.8 12.8 23.04s-5.12 17.92-12.8 23.04l-179.2 102.4c-5.12 5.12-10.24 5.12-15.36 5.12z m2.56-227.84v197.12l168.96-97.28-168.96-99.84z m176.64 94.72z" fill="#2A2A2A" p-id="2799"></path></svg>