<?xml version="1.0" standalone="no"?><!DOCTYPE svg PUBLIC "-//W3C//DTD SVG 1.1//EN" "http://www.w3.org/Graphics/SVG/1.1/DTD/svg11.dtd"><svg t="1559194006163" class="icon" style="" viewBox="0 0 1024 1024" version="1.1" xmlns="http://www.w3.org/2000/svg" p-id="2977" xmlns:xlink="http://www.w3.org/1999/xlink" width="16" height="16"><defs><style type="text/css"></style></defs><path d="M960 0H192c-35.376 0-64 28.656-64 64v177.872a190.448 190.448 0 0 1 64-38.248V64h768v896H192v-139.624a190.368 190.368 0 0 1-64-38.248V960c0 35.344 28.624 64 64 64h768c35.376 0 64-28.656 64-64V64c0-35.344-28.624-64-64-64z" fill="#B0BEC5" p-id="2978"></path><path d="M256 320a63.76 63.76 0 0 1 45.248 18.752 63.984 63.984 0 0 1 0 90.504L282.504 448H512c35.376 0 64 28.656 64 64s-28.624 64-64 64H282.504l18.752 18.752a63.984 63.984 0 0 1 0 90.504C288.752 697.752 272.376 704 256 704s-32.752-6.248-45.248-18.752l-128-128a63.984 63.984 0 0 1 0-90.504l128-128A63.792 63.792 0 0 1 256 320m0-64a127.136 127.136 0 0 0-90.504 37.504l-128 128C13.312 445.688 0 477.816 0 512s13.312 66.312 37.504 90.504l128 128C189.688 754.688 221.816 768 256 768s66.312-13.312 90.504-37.504a127.632 127.632 0 0 0 37.44-90.504H512c70.56 0 128-57.408 128-128 0-70.56-57.44-128-128-128H383.936c0-32.784-12.504-65.56-37.44-90.504A127.152 127.152 0 0 0 256 256z" fill="#F44336" p-id="2979"></path><path d="M832 192v640h-64V192h64m64-64H704v768h192V128z" fill="#EF9A9A" p-id="2980"></path></svg>