<?xml version="1.0" standalone="no"?><!DOCTYPE svg PUBLIC "-//W3C//DTD SVG 1.1//EN" "http://www.w3.org/Graphics/SVG/1.1/DTD/svg11.dtd"><svg t="1559780045223" class="icon" style="" viewBox="0 0 1024 1024" version="1.1" xmlns="http://www.w3.org/2000/svg" p-id="15491" xmlns:xlink="http://www.w3.org/1999/xlink" width="16" height="16"><defs><style type="text/css"></style></defs><path d="M861.090909 104.727273H162.909091A128 128 0 0 0 34.909091 232.727273v558.545454a128 128 0 0 0 128 128h698.181818a128 128 0 0 0 128-128V232.727273A128 128 0 0 0 861.090909 104.727273z m104.727273 686.545454a104.727273 104.727273 0 0 1-104.727273 104.727273H162.909091a104.727273 104.727273 0 0 1-104.727273-104.727273V232.727273a104.727273 104.727273 0 0 1 104.727273-104.727273h698.181818a104.727273 104.727273 0 0 1 104.727273 104.727273z" fill="#FF1800" p-id="15492"></path><path d="M93.090909 285.090909a5.818182 5.818182 0 0 0 5.818182-5.818182v-6.981818a110.661818 110.661818 0 0 1 110.545454-110.545454h5.818182a5.818182 5.818182 0 0 0 0-11.636364H209.454545A122.298182 122.298182 0 0 0 87.272727 272.290909v6.981818a5.818182 5.818182 0 0 0 5.818182 5.818182z" fill="#FF1800" p-id="15493"></path><path d="M93.090909 311.854545m-5.818182 0a5.818182 5.818182 0 1 0 11.636364 0 5.818182 5.818182 0 1 0-11.636364 0Z" fill="#FF1800" p-id="15494"></path><path d="M407.854545 331.054545h-279.272727a5.818182 5.818182 0 0 0 0 11.636364h279.272727a5.818182 5.818182 0 0 0 0-11.636364zM407.854545 505.6h-279.272727a5.818182 5.818182 0 1 0 0 11.636364h279.272727a5.818182 5.818182 0 0 0 0-11.636364zM407.854545 680.145455h-279.272727a5.818182 5.818182 0 1 0 0 11.636363h279.272727a5.818182 5.818182 0 0 0 0-11.636363zM686.545455 296.727273A215.272727 215.272727 0 1 0 901.236364 512 215.505455 215.505455 0 0 0 686.545455 296.727273z m0 418.909091A203.636364 203.636364 0 1 1 889.6 512 203.869091 203.869091 0 0 1 686.545455 715.636364z" fill="#FF1800" p-id="15495"></path><path d="M772.421818 425.658182a5.818182 5.818182 0 0 0-8.261818 0L686.545455 503.738182l-78.08-78.08a5.818182 5.818182 0 0 0-8.261819 0 5.585455 5.585455 0 0 0 0 8.145454L677.818182 512l-78.196364 78.196364a5.818182 5.818182 0 0 0 4.072727 9.890909 5.934545 5.934545 0 0 0 4.189091-1.745455L686.545455 520.261818l78.196363 78.08a5.818182 5.818182 0 0 0 4.072727 1.745455 5.934545 5.934545 0 0 0 4.189091-1.745455 5.818182 5.818182 0 0 0 0-8.145454L694.225455 512l78.196363-78.196364a5.818182 5.818182 0 0 0 0-8.145454z" fill="#FF1800" p-id="15496"></path></svg>