<?xml version="1.0" standalone="no"?><!DOCTYPE svg PUBLIC "-//W3C//DTD SVG 1.1//EN" "http://www.w3.org/Graphics/SVG/1.1/DTD/svg11.dtd"><svg t="1547023213956" class="icon" style="" viewBox="0 0 1024 1024" version="1.1" xmlns="http://www.w3.org/2000/svg" p-id="58997" xmlns:xlink="http://www.w3.org/1999/xlink" width="16" height="16"><defs><style type="text/css"></style></defs><path d="M960 64H64c-32 0-64 32-64 64v768c0 32 32 64 64 64h896c32 0 64-32 64-64V128c0-32-32-64-64-64z m0 832H64V128h896v768z" fill="#727272" p-id="58998"></path><path d="M0 320V128c0-32 32-64 64-64h896c38.4 0 64 32 64 64v192H0z" fill="#039C23" p-id="58999"></path><path d="M64 128h896v128H64z" fill="#FFFFFF" p-id="59000"></path><path d="M64 320h896v576H64z" fill="#FFFFFF" p-id="59001"></path><path d="M768 704v64H576c0-19.2 6.4-44.8 19.2-64s32-44.8 64-83.2c38.4-38.4 57.6-64 57.6-89.6 0-38.4-25.6-44.8-38.4-44.8-38.4 0-44.8 38.4-51.2 57.6L576 537.6c6.4-32 19.2-89.6 102.4-89.6 70.4 0 89.6 38.4 89.6 83.2 0 64-96 147.2-102.4 172.8H768zM384 768h-57.6V537.6c-19.2 19.2-44.8 38.4-70.4 44.8v-51.2c12.8-6.4 76.8-64 83.2-83.2H384v320zM448 704v64h32l32 64v-128z" fill="#727272" p-id="59002"></path></svg>