<?xml version="1.0" standalone="no"?><!DOCTYPE svg PUBLIC "-//W3C//DTD SVG 1.1//EN" "http://www.w3.org/Graphics/SVG/1.1/DTD/svg11.dtd"><svg t="1546501161523" class="icon" style="" viewBox="0 0 1024 1024" version="1.1" xmlns="http://www.w3.org/2000/svg" p-id="2166" xmlns:xlink="http://www.w3.org/1999/xlink" width="16" height="16"><defs><style type="text/css"></style></defs><path d="M790.238 668.603c-76.32 0-138.197 61.868-138.197 138.196s61.879 138.196 138.197 138.196c76.327 0 138.206-61.868 138.206-138.196s-61.878-138.196-138.206-138.196z m70.984 176.223a23.287 23.287 0 0 1 6.8 16.48 23.292 23.292 0 0 1-6.801 16.48 23.313 23.313 0 0 1-16.48 6.793 23.305 23.305 0 0 1-16.48-6.796l-38.025-38.025-38.027 38.026a23.297 23.297 0 0 1-16.475 6.794 23.303 23.303 0 0 1-16.478-6.795 23.287 23.287 0 0 1-6.799-16.478 23.292 23.292 0 0 1 6.802-16.48l38.025-38.026-38.026-38.026c-4.201-4.225-6.8-10.048-6.8-16.48s2.599-12.254 6.802-16.48a23.3 23.3 0 0 1 16.476-6.791 23.303 23.303 0 0 1 16.477 6.793l38.026 38.027 38.026-38.027a23.306 23.306 0 0 1 16.48-6.794 23.307 23.307 0 0 1 16.48 6.794 23.3 23.3 0 0 1 6.799 16.48 23.292 23.292 0 0 1-6.802 16.48l-38.026 38.026 38.026 38.025zM372.737 165.057h195.95c20.643 0 38.06-19.254 38.06-43.082 0-23.77-17.363-42.97-39.19-42.97h-194.82c-21.717 0-39.082 19.2-39.082 42.97 0 23.772 17.416 43.082 39.082 43.082z" p-id="2167"></path><path d="M782.327 636.429c22.792 0 44.457 4.625 64.132 13.135V223.877c0-58.393-31.665-98.816-98.003-98.816h-88.323c0.858 4.68 1.397 9.466 1.397 14.307 0.053 36.165-26.397 71.746-57.792 71.746H332.471c-33.06 0-59.51-35.582-59.51-71.746 0.053-4.787 0.59-9.626 1.45-14.307H185.01c-71.822 0-89.454 40.422-89.454 98.816V801.83c0 62.705 25.266 97.807 94.883 97.807h467.755c-23.385-27.816-37.472-63.715-37.472-102.804 0.003-88.608 72.31-160.405 161.605-160.405zM284.089 344.552h382.87c14.14 0 26.073 13.083 27.149 28.19 0 14.093-14.84 29.195-28.977 29.195H281.185c-14.192 0-23.17-15.1-23.17-29.196 0.001-14.093 11.935-28.189 26.074-28.189z m-6.666 164.556h382.868c14.14 0 26.073 10.9 27.203 26.006 0 14.092-9.782 31.325-23.922 31.325H279.573c-14.138 0-28.279-17.233-28.279-31.325 0-14.041 11.936-26.006 26.13-26.006z m179.069 216.827H281.185c-14.192 0-23.17-15.104-23.17-29.195 0-14.094 11.935-28.137 26.073-28.137H458.32c14.193 0 26.126 12.98 27.203 28.137 0.001 14.091-14.89 29.195-29.03 29.195z" p-id="2168"></path></svg>