<?xml version="1.0" standalone="no"?><!DOCTYPE svg PUBLIC "-//W3C//DTD SVG 1.1//EN" "http://www.w3.org/Graphics/SVG/1.1/DTD/svg11.dtd"><svg t="1547011990193" class="icon" style="" viewBox="0 0 1024 1024" version="1.1" xmlns="http://www.w3.org/2000/svg" p-id="12992" xmlns:xlink="http://www.w3.org/1999/xlink" width="16" height="16"><defs><style type="text/css"></style></defs><path d="M960 64H64c-32 0-64 32-64 64v768c0 32 32 64 64 64h896c32 0 64-32 64-64V128c0-32-32-64-64-64z m0 832H64V128h896v768z" fill="#727272" p-id="12993"></path><path d="M0 320V128c0-32 32-64 64-64h896c38.4 0 64 32 64 64v192H0z" fill="#039C23" p-id="12994"></path><path d="M64 128h896v128H64z" fill="#FFFFFF" p-id="12995"></path><path d="M64 320h896v576H64z" fill="#FFFFFF" p-id="12996"></path><path d="M640 678.4l51.2-6.4c0 12.8 6.4 44.8 38.4 44.8 12.8 0 44.8 0 44.8-51.2 0-12.8 0-51.2-38.4-51.2-6.4 0-12.8 0-25.6 6.4l6.4-51.2c12.8 0 44.8-6.4 44.8-44.8 0-12.8 0-32-32-32s-38.4 32-38.4 44.8l-51.2-6.4c6.4-19.2 12.8-83.2 96-83.2 25.6 0 83.2 0 83.2 76.8 0 25.6-12.8 51.2-38.4 64 19.2 6.4 51.2 12.8 51.2 76.8 0 25.6-6.4 51.2-25.6 70.4s-44.8 32-70.4 32c-89.6 0-96-64-96-89.6zM576 768H384c0-19.2 6.4-44.8 19.2-64 12.8-19.2 32-44.8 64-76.8 19.2-19.2 38.4-38.4 44.8-51.2 6.4-12.8 32-76.8-25.6-76.8-12.8 0-25.6 6.4-32 12.8-6.4 6.4-6.4 19.2-6.4 38.4l-57.6-6.4C396.8 512 396.8 448 486.4 448 582.4 448 576 512 576 537.6c0 51.2-44.8 102.4-64 121.6-19.2 19.2-38.4 51.2-44.8 57.6H576v51.2zM320 768h-57.6V537.6c-19.2 19.2-44.8 38.4-70.4 44.8v-51.2c12.8-6.4 76.8-64 83.2-83.2H320v320z" fill="#727272" p-id="12997"></path></svg>