<?xml version="1.0" standalone="no"?><!DOCTYPE svg PUBLIC "-//W3C//DTD SVG 1.1//EN" "http://www.w3.org/Graphics/SVG/1.1/DTD/svg11.dtd"><svg t="1549973115736" class="icon" style="" viewBox="0 0 1024 1024" version="1.1" xmlns="http://www.w3.org/2000/svg" p-id="8930" xmlns:xlink="http://www.w3.org/1999/xlink" width="16" height="16"><defs><style type="text/css"></style></defs><path d="M896 1024H128c-38.4 0-64-25.6-64-64V128c0-38.4 25.6-64 64-64h768c38.4 0 64 25.6 64 64v832c0 38.4-25.6 64-64 64z" fill="#4BB3FF" p-id="8931"></path><path d="M800 448h-576c-19.2 0-32-12.8-32-32s12.8-32 32-32h576c19.2 0 32 12.8 32 32s-12.8 32-32 32zM800 640h-576c-19.2 0-32-12.8-32-32s12.8-32 32-32h576c19.2 0 32 12.8 32 32s-12.8 32-32 32zM800 832h-576c-19.2 0-32-12.8-32-32s12.8-32 32-32h576c19.2 0 32 12.8 32 32s-12.8 32-32 32z" fill="#FCFCFC" p-id="8932"></path><path d="M288 192c-19.2 0-32-12.8-32-32v-128c0-19.2 12.8-32 32-32s32 12.8 32 32v128c0 19.2-12.8 32-32 32zM736 192c-19.2 0-32-12.8-32-32v-128c0-19.2 12.8-32 32-32s32 12.8 32 32v128c0 19.2-12.8 32-32 32z" fill="#006DC0" p-id="8933"></path></svg>