<?xml version="1.0" standalone="no"?><!DOCTYPE svg PUBLIC "-//W3C//DTD SVG 1.1//EN" "http://www.w3.org/Graphics/SVG/1.1/DTD/svg11.dtd"><svg t="1549972980704" class="icon" style="" viewBox="0 0 1024 1024" version="1.1" xmlns="http://www.w3.org/2000/svg" p-id="7874" data-spm-anchor-id="a313x.7781069.0.i3" xmlns:xlink="http://www.w3.org/1999/xlink" width="16" height="16"><defs><style type="text/css"></style></defs><path d="M841.068918 241.295393c-6.503096-1.064236 1.806131 70.014446 1.806131 70.014446s34.239745 28.442729 34.239745 51.615443v537.828009h0.010233c0 30.908891-25.142574 56.020766-56.025883 56.020766H328.107191c-22.169877-0.030699-50.418178-31.614971-50.418178-31.614971s-72.112218-9.040889-70.725641-1.662868C217.672246 980.617036 267.911346 1024 328.107191 1024h492.99707c67.962722 0 123.246709-55.30957 123.246709-123.256942V362.930399c-0.005117-61.142402-44.779774-112.056882-103.282052-121.635006z" fill="#1296db" p-id="7875" data-spm-anchor-id="a313x.7781069.0.i2" class=""></path><path d="M753.924367 775.398576c0 31.000988-25.219322 56.189611-56.189612 56.189611h-494.460394c-31.016338-0.040932-56.148679-25.173273-56.189611-56.189611V235.989563c0-30.995872 25.219322-56.189611 56.189611-56.189611h63.874623l-4.49742 44.953735h-36.905451a33.707627 33.707627 0 1 0-0.025583 67.415254h449.537357a33.70251 33.70251 0 0 0 33.722977-33.697394 33.70251 33.70251 0 0 0-33.697394-33.722976H638.342203l-4.492304-44.953736h63.869507c30.975406 0 56.189611 25.193739 56.189611 56.189611v539.41413h0.01535zM345.165666 77.541203a11.169361 11.169361 0 0 1 11.169361-10.115358h188.34418c5.807249 0 10.606544 4.338808 11.174477 10.115358l3.509932 34.838378h-0.020466l11.230759 112.379223H330.440324l11.235876-112.379223h-0.025583l3.515049-34.838378z m352.569089 34.828145h-70.633544l-4.14438-41.556367c-3.929487-40.256771-37.831541-70.930303-78.287857-70.817739h-188.339064c-40.451199-0.107447-74.353254 30.560968-78.287857 70.817739l-4.134147 41.556367H203.274361c-68.239014 0.081864-123.543467 55.381201-123.615098 123.620215v539.403896c0 68.146916 55.4426 123.615098 123.615098 123.615099h494.460394c68.167382 0 123.615098-55.468182 123.615099-123.615099V235.989563c0-68.146916-55.447716-123.620215-123.615099-123.620215z" fill="#1296db" p-id="7876" data-spm-anchor-id="a313x.7781069.0.i1" class=""></path><path d="M344.434004 409.163264h92.097341v281.408544h-92.097341zM485.138275 409.163264h92.097342v281.408544h-92.097342z" fill="#ff0000" p-id="7877" data-spm-anchor-id="a313x.7781069.0.i0" class="selected"></path></svg>