<?xml version="1.0" standalone="no"?><!DOCTYPE svg PUBLIC "-//W3C//DTD SVG 1.1//EN" "http://www.w3.org/Graphics/SVG/1.1/DTD/svg11.dtd"><svg t="1547014173058" class="icon" style="" viewBox="0 0 1024 1024" version="1.1" xmlns="http://www.w3.org/2000/svg" p-id="57811" xmlns:xlink="http://www.w3.org/1999/xlink" width="16" height="16"><defs><style type="text/css"></style></defs><path d="M983.74341 312.704249a510.271362 510.271362 0 0 0-109.695863-162.751796A510.271362 510.271362 0 0 0 512 0.00064a510.271362 510.271362 0 0 0-362.047547 149.951813A510.271362 510.271362 0 0 0 0.00064 512a510.207362 510.207362 0 0 0 149.951813 362.047547A510.271362 510.271362 0 0 0 512 1023.99936a510.271362 510.271362 0 0 0 362.047547-149.951813A510.271362 510.271362 0 0 0 1023.99936 512a508.799364 508.799364 0 0 0-40.25595-199.295751z m-57.087928 374.463532a448.639439 448.639439 0 0 1-96.44788 143.039821A448.639439 448.639439 0 0 1 512 962.047437a448.639439 448.639439 0 0 1-318.207602-131.839835A448.639439 448.639439 0 0 1 61.952563 512a448.639439 448.639439 0 0 1 131.839835-318.207602A448.575439 448.575439 0 0 1 512 61.952563a448.575439 448.575439 0 0 1 318.207602 131.839835A448.639439 448.639439 0 0 1 962.047437 512c0 60.799924-11.903985 119.67985-35.391955 175.167781z" fill="#ff0000" p-id="57812" data-spm-anchor-id="a313x.7781069.0.i34" class="selected"></path><path d="M695.67977 643.903835L333.632223 281.856288c-15.551981-15.551981-36.159955-15.551981-51.775935 0-15.551981 15.61598-15.551981 36.223955 0 51.839935l362.047547 361.983547c15.61598 15.551981 36.223955 15.551981 51.839935 0 15.487981-15.551981 15.487981-36.159955 0-51.775935z" fill="#ff0000" p-id="57813" data-spm-anchor-id="a313x.7781069.0.i35" class="selected"></path></svg>