<?xml version="1.0" standalone="no"?><!DOCTYPE svg PUBLIC "-//W3C//DTD SVG 1.1//EN" "http://www.w3.org/Graphics/SVG/1.1/DTD/svg11.dtd"><svg t="1546611862451" class="icon" style="" viewBox="0 0 1024 1024" version="1.1" xmlns="http://www.w3.org/2000/svg" p-id="22831" xmlns:xlink="http://www.w3.org/1999/xlink" width="16" height="16"><defs><style type="text/css"></style></defs><path d="M107.594267 107.210395h808.555722v167.852074h107.210395V0H0.383872V996.962852h241.457938v-0.341163h13.902382V889.581876H107.594267z" fill="#1F7AF1" p-id="22832"></path><path d="M986.600097 575.626853h-64.820923c-6.14093-13.134766-14.755289-40.598367-25.843078-60.129935l45.801099-44.521739a36.163252 36.163252 0 0 0 0-51.600866l-52.283191-52.02732a36.930868 36.930868 0 0 0-52.283192 0.255872l-43.242379 45.8011c-19.531568-11.087789-46.909878-19.616858-60.129935-25.757788v-64.820923c0-20.469765-21.663835-37.016159-42.048309-37.016159h-73.947027c-20.469765 0-42.048309 16.546393-42.048309 37.016159v64.820923c-13.220057 6.14093-40.598367 14.755289-60.129935 25.843078l-44.521739-45.801099a36.163252 36.163252 0 0 0-51.600866 0l-52.02732 52.283192a36.930868 36.930868 0 0 0 0.255872 52.283191l45.88639 43.242379c-11.087789 19.616858-19.702149 46.909878-25.843078 60.129935h-64.820923c-20.469765 0-37.016159 21.663835-37.016159 42.048309v73.947027c0 20.469765 16.546393 42.048309 37.016159 42.048309h64.820923c6.14093 13.134766 14.84058 40.598367 25.928369 60.044644l-45.88639 44.60703a36.163252 36.163252 0 0 0 0 51.600866l52.283192 52.02732c14.499417 14.414126 37.869065 14.243545 52.283191-0.255872l43.32767-45.88639c19.446277 11.087789 46.909878 19.702149 60.044644 25.843078v64.820923c0 20.469765 21.663835 37.016159 42.048309 37.016159h73.947027c20.469765 0 42.048309-16.546393 42.048309-37.016159v-64.820923c13.220057-6.14093 40.598367-14.84058 60.129935-25.928369l44.521739 45.8011c14.499417 14.499417 37.18674 14.499417 51.600866 0l52.02732-52.197901a37.016159 37.016159 0 0 0-0.170581-52.368483l-45.88639-43.242379c11.087789-19.531568 19.616858-46.909878 25.757787-60.044644h64.820923c20.469765 0 37.016159-21.663835 37.016159-42.048309v-73.947027c0-20.469765-16.546393-42.048309-37.016159-42.048309z m-331.780776 245.38131a166.316842 166.316842 0 1 1 0-332.718974 166.316842 166.316842 0 0 1 0 332.633683z" fill="#1F7AF1" p-id="22833"></path></svg>