<?xml version="1.0" standalone="no"?><!DOCTYPE svg PUBLIC "-//W3C//DTD SVG 1.1//EN" "http://www.w3.org/Graphics/SVG/1.1/DTD/svg11.dtd"><svg t="1559779229189" class="icon" style="" viewBox="0 0 1024 1024" version="1.1" xmlns="http://www.w3.org/2000/svg" p-id="3074" xmlns:xlink="http://www.w3.org/1999/xlink" width="16" height="16"><defs><style type="text/css"></style></defs><path d="M422.37 484.89l455.79 0 0 410.21-455.79 0 0-410.21Z" fill="#FFFFFF" p-id="3075"></path><path d="M826.89 915.53H473.64a71.78 71.78 0 0 1-71.7-71.7V536.17a71.78 71.78 0 0 1 71.7-71.7h353.25a71.78 71.78 0 0 1 71.7 71.7v307.66a71.78 71.78 0 0 1-71.7 71.7zM473.64 505.31a30.89 30.89 0 0 0-30.85 30.85v307.67a30.89 30.89 0 0 0 30.85 30.85h353.25a30.89 30.89 0 0 0 30.85-30.85V536.17a30.89 30.89 0 0 0-30.85-30.85z" fill="#1B1B20" p-id="3076"></path><path d="M490.74 650.12h319.05a17.09 17.09 0 1 1 0 34.18H490.74a17.09 17.09 0 0 1 0-34.18zM490.74 581.75h319.05a17.09 17.09 0 1 1 0 34.18H490.74a17.09 17.09 0 0 1 0-34.18z" fill="#1B1B20" p-id="3077"></path><path d="M143.6 200.02l581.14 0 0 695.09-581.14 0 0-695.09Z" fill="#FFFFFF" p-id="3078"></path><path d="M678.75 915.53H200.17a71.78 71.78 0 0 1-71.7-71.7V251.3a71.78 71.78 0 0 1 71.7-71.7h478.58a71.78 71.78 0 0 1 71.7 71.7v592.53a71.78 71.78 0 0 1-71.7 71.7zM200.17 220.44a30.89 30.89 0 0 0-30.85 30.85v592.54a30.89 30.89 0 0 0 30.85 30.85h478.58a30.89 30.89 0 0 0 30.85-30.85V251.3a30.89 30.89 0 0 0-30.85-30.85z" fill="#1B1B20" p-id="3079"></path><path d="M302.72 125.95l273.48 0 0 148.13-273.48 0 0-148.13Z" fill="#A8C3F5" p-id="3080"></path><path d="M519.22 294.51H359.7a77.49 77.49 0 0 1-77.4-77.4v-34.18a77.49 77.49 0 0 1 77.4-77.4h159.52a77.49 77.49 0 0 1 77.4 77.4v34.18a77.49 77.49 0 0 1-77.4 77.4zM359.7 146.38a36.59 36.59 0 0 0-36.55 36.55v34.18a36.59 36.59 0 0 0 36.55 36.55h159.52a36.59 36.59 0 0 0 36.55-36.55v-34.18a36.59 36.59 0 0 0-36.55-36.55z" fill="#1B1B20" p-id="3081"></path><path d="M251.44 467.8H616.9a17.09 17.09 0 0 1 0 34.18H251.44a17.09 17.09 0 1 1 0-34.18zM380.36 388H616.9a17.09 17.09 0 0 1 0 34.18H380.36a17.09 17.09 0 1 1 0-34.18zM251.44 547.56H616.9a17.09 17.09 0 0 1 0 34.18H251.44a17.09 17.09 0 0 1 0-34.18zM551.18 627.33h65.72a17.09 17.09 0 0 1 0 34.18h-65.72a17.09 17.09 0 0 1 0-34.18z" fill="#A1C4FA" p-id="3082"></path></svg>