<?xml version="1.0" standalone="no"?><!DOCTYPE svg PUBLIC "-//W3C//DTD SVG 1.1//EN" "http://www.w3.org/Graphics/SVG/1.1/DTD/svg11.dtd"><svg t="1546484659732" class="icon" style="" viewBox="0 0 1024 1024" version="1.1" xmlns="http://www.w3.org/2000/svg" p-id="1864" xmlns:xlink="http://www.w3.org/1999/xlink" width="16" height="16"><defs><style type="text/css"></style></defs><path d="M145.8 802.6v29.1c0 58.1 47.3 105.3 105.3 105.3h436.6c56.9-1.4 102.7-48.1 102.7-105.3V350.1h165.7v-21.5c0-57.9-46.9-105-104.8-105.3H416.8c-58.1 0-105.3 47.3-105.3 105.3v474H145.8z m760.6-497.5H795.2c9.2-21.6 30.6-36.8 55.6-36.8s46.4 15.1 55.6 36.8zM685.1 892c-33.3 0-60.3-27.1-60.3-60.3v-29.1H356.5v-474c0-33.3 27.1-60.3 60.3-60.3h347.7c-12 17.1-19 37.9-19 60.3v503.1c0 33.2-27.1 60.3-60.4 60.3zM193 847.6h388c2.5 16.3 8.7 31.4 17.8 44.4H251.1c-27.7 0-51.1-18.9-58.1-44.4z" fill="#0E55E2" p-id="1865"></path><path d="M239.6 63.4c-97.1 0-175.7 78.7-175.7 175.7s78.7 175.7 175.7 175.7c97.1 0 175.8-78.7 175.8-175.7S336.7 63.4 239.6 63.4z" fill="#8DF78D" p-id="1866"></path><path d="M264.8 244.1l46.3-46.3c8.1-8.1 8.1-21.3 0-29.4s-21.3-8.1-29.4 0l-46.3 46.3-46.3-46.3c-8.1-8.1-21.3-8.1-29.4 0-8.1 8.1-8.1 21.3 0 29.4l46.3 46.3-46.3 46.3c-8.1 8.1-8.1 21.3 0 29.4 8.1 8.1 21.3 8.1 29.4 0l46.3-46.3 46.3 46.3c8.1 8.1 21.3 8.1 29.4 0s8.1-21.3 0-29.4l-46.3-46.3z" fill="#10A018" p-id="1867"></path><path d="M193 847.6h388c2.5 16.3 8.7 31.4 17.8 44.4H251.1c-27.7 0-51.1-18.9-58.1-44.4zM906.4 305.1H795.2c9.2-21.6 30.6-36.8 55.6-36.8s46.4 15.1 55.6 36.8zM659.3 571.7H446.5c-15.4 0-28.1-12.6-28.1-28.1 0-15.4 12.6-28.1 28.1-28.1h212.9c15.4 0 28.1 12.6 28.1 28.1-0.1 15.4-12.7 28.1-28.2 28.1zM659.3 667.5H446.5c-15.4 0-28.1-12.6-28.1-28.1 0-15.4 12.6-28.1 28.1-28.1h212.9c15.4 0 28.1 12.6 28.1 28.1-0.1 15.5-12.7 28.1-28.2 28.1zM659.3 478.8H446.5c-15.4 0-28.1-12.6-28.1-28.1 0-15.4 12.6-28.1 28.1-28.1h212.9c15.4 0 28.1 12.6 28.1 28.1-0.1 15.5-12.7 28.1-28.2 28.1z" fill="#9FCDFF" p-id="1868"></path></svg>