<?xml version="1.0" standalone="no"?><!DOCTYPE svg PUBLIC "-//W3C//DTD SVG 1.1//EN" "http://www.w3.org/Graphics/SVG/1.1/DTD/svg11.dtd"><svg t="1547629502587" class="icon" style="" viewBox="0 0 1024 1024" version="1.1" xmlns="http://www.w3.org/2000/svg" p-id="9105" xmlns:xlink="http://www.w3.org/1999/xlink" width="16" height="16"><defs><style type="text/css"></style></defs><path d="M61.91104 382.52544l374.35392 241.99168a139.44832 139.44832 0 0 0 75.75552 22.30272 139.55072 139.55072 0 0 0 75.75552-22.30272l374.31296-241.99168A45.6704 45.6704 0 0 0 983.04 344.04352c0-15.62624-7.82336-30.02368-20.95104-38.52288L587.73504 63.52896a139.69408 139.69408 0 0 0-151.47008 0L61.91104 305.52064A45.6704 45.6704 0 0 0 40.96 344.04352a45.6704 45.6704 0 0 0 20.95104 38.48192zM460.63616 101.21216a94.76096 94.76096 0 0 1 102.74816-0.02048l374.33344 243.63008L563.4048 586.83392a94.86336 94.86336 0 0 1-102.76864 0L86.26176 343.18336l374.3744-241.9712z" fill="#1199F0" p-id="9106"></path><path d="M937.71776 512.8192L563.4048 754.81088a94.78144 94.78144 0 0 1-102.76864 0L86.28224 512.8192a22.4256 22.4256 0 1 0-24.3712 37.66272l374.35392 241.99168a139.40736 139.40736 0 0 0 75.75552 22.3232 139.38688 139.38688 0 0 0 75.75552-22.3232L962.08896 550.5024a22.4256 22.4256 0 0 0-24.3712-37.6832z" fill="#1199F0" p-id="9107"></path><path d="M937.71776 680.81664L563.4048 922.78784a94.78144 94.78144 0 0 1-102.78912 0L86.26176 680.81664a22.40512 22.40512 0 1 0-24.33024 37.66272l374.33344 241.99168a139.38688 139.38688 0 0 0 75.75552 22.30272 139.55072 139.55072 0 0 0 75.75552-22.30272l374.33344-241.99168a22.4256 22.4256 0 1 0-24.39168-37.66272z" fill="#1199F0" p-id="9108"></path></svg>