<?xml version="1.0" standalone="no"?><!DOCTYPE svg PUBLIC "-//W3C//DTD SVG 1.1//EN" "http://www.w3.org/Graphics/SVG/1.1/DTD/svg11.dtd"><svg t="1547604520927" class="icon" style="" viewBox="0 0 1024 1024" version="1.1" xmlns="http://www.w3.org/2000/svg" p-id="2945" xmlns:xlink="http://www.w3.org/1999/xlink" width="16" height="16"><defs><style type="text/css"></style></defs><path d="M967.1 0H398.2c-31.4 0-56.9 25.5-56.9 56.9v170.7H455.1V113.8h455.1v796.4H455.1V796.4h-113.8v170.7c0 31.4 25.5 56.9 56.9 56.9h568.9c31.4 0 56.9-25.5 56.9-56.9V56.9c0-31.4-25.5-56.9-56.9-56.9z" fill="#1969FF" p-id="2946"></path><path d="M194.3 568.9h545.3c31.4 0 56.9-25.5 56.9-56.9s-25.5-56.9-56.9-56.9h-545.3l102-102c22.2-22.2 22.2-58.3 0-80.5-22.2-22.2-58.3-22.2-80.5 0l-199.1 199.1c-22.2 22.2-22.2 58.3 0 80.5l199.1 199.1c22.2 22.2 58.2 22.2 80.5 0 22.2-22.2 22.2-58.3 0-80.5l-102-101.9z" fill="#1969FF" p-id="2947"></path></svg>