<?xml version="1.0" standalone="no"?><!DOCTYPE svg PUBLIC "-//W3C//DTD SVG 1.1//EN" "http://www.w3.org/Graphics/SVG/1.1/DTD/svg11.dtd"><svg t="1547091273638" class="icon" style="" viewBox="0 0 1024 1024" version="1.1" xmlns="http://www.w3.org/2000/svg" p-id="3194" xmlns:xlink="http://www.w3.org/1999/xlink" width="16" height="16"><defs><style type="text/css"></style></defs><path d="M397.963636 502.690909c-4.654545-2.327273-9.309091-2.327273-13.963636-2.327273a155.927273 155.927273 0 1 1 155.927273-155.927272c0 27.927273-6.981818 58.181818-23.272728 81.454545-9.309091 16.290909-4.654545 37.236364 11.636364 48.872727 16.290909 9.309091 37.236364 4.654545 48.872727-11.636363 20.945455-34.909091 32.581818-76.8 32.581819-118.690909 0-123.345455-100.072727-225.745455-225.745455-225.745455-123.345455 0-225.745455 100.072727-225.745455 225.745455 0 74.472727 37.236364 139.636364 93.09091 181.527272C104.727273 581.818182 0 721.454545 0 889.018182c0 18.618182 16.290909 34.909091 34.909091 34.909091S69.818182 907.636364 69.818182 889.018182c0-174.545455 141.963636-316.509091 316.509091-316.509091s316.509091 141.963636 316.509091 316.509091c0 18.618182 16.290909 34.909091 34.909091 34.909091s34.909091-16.290909 34.90909-34.909091c0-209.454545-167.563636-379.345455-374.690909-386.327273zM779.636364 570.181818c-18.618182-4.654545-37.236364 6.981818-41.890909 25.6-4.654545 18.618182 6.981818 37.236364 25.6 41.890909 6.981818 2.327273 190.836364 44.218182 190.836363 249.018182 0 18.618182 16.290909 34.909091 34.909091 34.909091S1024 907.636364 1024 889.018182c0-209.454545-160.581818-300.218182-244.363636-318.836364z" fill="#1296DB" p-id="3195"></path><path d="M812.218182 560.872727c-9.309091 0-18.618182-4.654545-25.6-11.636363-13.963636-13.963636-11.636364-37.236364 2.327273-48.872728 0 0 37.236364-39.563636 16.290909-123.345454-18.618182-81.454545-116.363636-88.436364-118.690909-88.436364-18.618182-2.327273-34.909091-18.618182-32.581819-37.236363 2.327273-18.618182 18.618182-32.581818 37.236364-32.581819 6.981818 0 151.272727 9.309091 183.854545 141.963637 30.254545 125.672727-32.581818 188.509091-37.236363 190.836363-9.309091 4.654545-18.618182 9.309091-25.6 9.309091z" fill="#FFB243" p-id="3196"></path></svg>