<?xml version="1.0" standalone="no"?><!DOCTYPE svg PUBLIC "-//W3C//DTD SVG 1.1//EN" "http://www.w3.org/Graphics/SVG/1.1/DTD/svg11.dtd"><svg t="1559170035349" class="icon" style="" viewBox="0 0 1024 1024" version="1.1" xmlns="http://www.w3.org/2000/svg" p-id="3668" xmlns:xlink="http://www.w3.org/1999/xlink" width="16" height="16"><defs><style type="text/css"></style></defs><path d="M468.3 399.6m-274.7 0a274.7 274.7 0 1 0 549.4 0 274.7 274.7 0 1 0-549.4 0Z" fill="#72F275" p-id="3669"></path><path d="M455.7 476.6v-66.4c-20.7-5.9-35.9-14.9-45.6-26.9-9.7-12-14.5-26.6-14.5-43.7 0-17.3 5.5-31.9 16.4-43.7 10.9-11.8 25.5-18.6 43.7-20.4v-15.7h23v15.7c16.8 2 30.2 7.7 40.1 17.2 9.9 9.5 16.3 22.1 19 38l-40.1 5.2c-2.4-12.5-8.8-20.9-19-25.4v62c25.4 6.9 42.6 15.8 51.8 26.7s13.8 25 13.8 42.1c0 19.1-5.8 35.2-17.4 48.4-11.6 13.1-27.7 21.1-48.3 24.1v29.6h-23v-28.9c-18.3-2.2-33.1-9-44.5-20.5-11.4-11.4-18.7-27.5-21.9-48.4l41.4-4.4c1.7 8.5 4.9 15.8 9.5 21.9 4.7 6.3 9.9 10.7 15.6 13.5z m0-166.5c-6.2 2.1-11.2 5.7-14.9 10.8-3.7 5.1-5.5 10.7-5.5 16.8 0 5.6 1.7 10.8 5.1 15.6 3.4 4.8 8.5 8.7 15.4 11.7v-54.9z m23 168.7c7.9-1.5 14.4-5.2 19.3-11 5-5.9 7.5-12.8 7.5-20.7 0-7.1-2.1-13.2-6.3-18.3-4.2-5.1-11-9.1-20.5-11.8v61.8z" fill="#1E9E25" p-id="3670"></path><path d="M768 630.6H424.6L224.8 524.5H50v187.3l329.6 156.1c16.9 8 36.2 9.4 54.1 3.8l390.6-122.4s31.2-18.7 31.2-68.7c-0.1-37.5-43.8-50-87.5-50z" fill="#FFFFFF" p-id="3671"></path><path d="M411.4 900.1c-14.6 0-29.1-3.2-42.5-9.6L25 727.6V499.5h206l199.8 106.1H768c104.3 0 112.4 57.3 112.4 74.9 0 50.6-27.2 80.4-43.3 90.1l-2.5 1.5-393.5 123.4c-9.7 3.1-19.8 4.6-29.7 4.6zM74.9 696l315.3 149.3c11.3 5.3 24 6.2 36 2.5l386.7-121.2c4.5-3.9 17.6-17.6 17.6-46.1 0-24.3-56-25-62.4-25H418.4l-199.8-106H74.9V696z" fill="#2020E5" p-id="3672"></path><path d="M537 768H343.4v-50H537c17.2 0 31.2-14 31.2-31.2s-14-31.2-31.2-31.2v-50c44.8 0 81.2 36.4 81.2 81.2S581.7 768 537 768z" fill="#2020E5" p-id="3673"></path></svg>