<?xml version="1.0" standalone="no"?><!DOCTYPE svg PUBLIC "-//W3C//DTD SVG 1.1//EN" "http://www.w3.org/Graphics/SVG/1.1/DTD/svg11.dtd"><svg t="1546603837982" class="icon" style="" viewBox="0 0 1024 1024" version="1.1" xmlns="http://www.w3.org/2000/svg" p-id="6594" xmlns:xlink="http://www.w3.org/1999/xlink" width="16" height="16"><defs><style type="text/css"></style></defs><path d="M446.85 603.82L329.53 486.5l-39.52 39.52 117.32 117.32-117.94 117.93 39.52 39.52 117.94-117.93 0.61 0.61 39.52-39.51-32.08-32.09-8.05-8.05zM522.53 704.79h250.62v55.89H522.53zM572.747 288.498l45.255-45.255 45.255 45.255-45.255 45.255zM689.245 288.5l45.255-45.254 45.255 45.254-45.255 45.255z" p-id="6595"></path><path d="M126.5 126.5v771h771v-771z m707 64v194h-643v-194z m-643 643v-385h643v385z" p-id="6596"></path></svg>