<?xml version="1.0" standalone="no"?><!DOCTYPE svg PUBLIC "-//W3C//DTD SVG 1.1//EN" "http://www.w3.org/Graphics/SVG/1.1/DTD/svg11.dtd"><svg t="1549451862799" class="icon" style="" viewBox="0 0 1024 1024" version="1.1" xmlns="http://www.w3.org/2000/svg" p-id="63784" xmlns:xlink="http://www.w3.org/1999/xlink" width="16" height="16"><defs><style type="text/css"></style></defs><path d="M425.6 769.28H301.44c-11.52 0-21.12-9.6-21.12-21.12V369.28c0-11.52 9.6-21.12 21.12-21.12h124.16c11.52 0 21.12 9.6 21.12 21.12v378.88c0 11.52-9.6 21.12-21.12 21.12z" fill="#FAB88D" p-id="63785"></path><path d="M783.36 421.76V244.48c0-44.16-35.84-80-80-80H271.36c-44.16 0-80 35.84-80 80v535.68c0 44.16 35.84 80 80 80h432c44.16 0 80-35.84 80-80v-192c29.44-12.16 49.92-40.96 49.92-74.24v-17.92c0-33.28-20.48-62.08-49.92-74.24z m-512-224.64h432c26.24 0 47.36 21.12 47.36 47.36v26.88H224v-26.88c0-26.24 21.12-47.36 47.36-47.36z m431.36 629.76H271.36c-26.24 0-47.36-21.12-47.36-47.36V304h526.08V416H573.44c-44.8 0-80.64 35.84-80.64 80v17.92c0 44.16 35.84 80 80 80h176.64v185.6c0.64 26.24-20.48 47.36-46.72 47.36zM800 513.92c0 22.4-15.36 40.96-36.48 46.08h-0.64c-3.2 0.64-6.4 1.28-10.24 1.28h-179.2c-26.24 0-47.36-21.12-47.36-47.36v-17.92c0-26.24 21.12-47.36 47.36-47.36h179.84c26.24 0 47.36 21.12 47.36 47.36v17.92z" fill="#EA6133" p-id="63786"></path><path d="M599.04 459.52a42.88 42.88 0 1 0 0 85.76 42.88 42.88 0 0 0 0-85.76z m0 52.48c-5.12 0-9.6-4.48-9.6-9.6s4.48-9.6 9.6-9.6 9.6 4.48 9.6 9.6-3.84 9.6-9.6 9.6z" fill="#EA6133" p-id="63787"></path></svg>