<?xml version="1.0" standalone="no"?><!DOCTYPE svg PUBLIC "-//W3C//DTD SVG 1.1//EN" "http://www.w3.org/Graphics/SVG/1.1/DTD/svg11.dtd"><svg t="1559170825486" class="icon" style="" viewBox="0 0 1024 1024" version="1.1" xmlns="http://www.w3.org/2000/svg" p-id="8667" xmlns:xlink="http://www.w3.org/1999/xlink" width="16" height="16"><defs><style type="text/css"></style></defs><path d="M814.376 561.564c-18-66.654-43.407-143.289-63.133-197.045-3.29-8.94-14.958-15.433-27.739-15.433a32.046 32.046 0 0 0-10.918 1.813c-4.547 1.638-11.886 6.77-17.283 11.483 3.3 8.941 10.191 27.623 13.038 35.6 5.316 14.827 0.311 27.986-12.46 32.734-13.77 5.116-25.64-0.64-31.744-15.412-4.99-12.1-27.811-68.378-28.04-68.945l-0.097-0.245a37.641 37.641 0 0 0-48.118-22.214 37.138 37.138 0 0 0-21.137 19.21 36.668 36.668 0 0 0-1.263 28.313l0.18 0.527a24.532 24.532 0 0 1-0.967 18.524 24.813 24.813 0 0 1-14.166 12.92 25.112 25.112 0 0 1-32.067-14.866l-11.682-31.776c-7.56-20.579-25.214-30.479-42.92-24.078a33.129 33.129 0 0 0-19.546 18.039c-3.773 8.724-3.879 18.882-0.3 28.609a26.021 26.021 0 0 1 1.086 3.878l9.416 50.767a25.04 25.04 0 0 1-47.835 13.84l-119.7-293.115c-8.685-23.626-29.847-35.421-50.3-28.052-9.438 3.409-16.514 9.67-20.456 18.1-4.613 9.87-4.632 22.2-0.056 34.723l189.273 483.25a24.848 24.848 0 0 1-14.3 32.222 25.128 25.128 0 0 1-32.4-14.192l-37.23-95.009q-1.869 3.3-3.729 6.809c-17.694 33.366-16.978 77.816 2.016 125.165 16.494 41.115 45.517 80.4 75.743 102.517 38.341 28.07 73.759 47.06 109 58.033a240.4 240.4 0 0 0 35.032 58.563c-57.792-7.914-113.935-32.763-173.74-76.525A272.585 272.585 0 0 1 265.27 715.261c-15.319-54-12.329-107.187 8.2-145.913 10.131-19.1 19.31-31.913 25.993-39.981l-130.2-332.439c-9.192-25.041-8.549-51.042 1.81-73.215A84.731 84.731 0 0 1 219.6 79.861a88.538 88.538 0 0 1 30.072-5.361c37.124 0 70.118 24.506 84.1 62.447l73.072 178.943a83.364 83.364 0 0 1 39.904-29.99c29.682-10.7 62.657-2.968 85.116 19.142a86.607 86.607 0 0 1 38.924-27.915 87.963 87.963 0 0 1 105.332 37.4 107.758 107.758 0 0 1 19.34-10.392 82.342 82.342 0 0 1 28.04-4.815c34.152 0 64.205 19.347 74.786 48.143 2.881 7.826 52.614 143.6 76.272 248.509a240.215 240.215 0 0 0-60.182-34.408z" fill="#17abe3" p-id="8668" data-spm-anchor-id="a313x.7781069.0.i7" class="selected"></path><path d="M726.5 983C617.431 983 529 894.575 529 785.5S617.431 588 726.5 588 924 676.432 924 785.5 835.567 983 726.5 983z m-32.442-270.011c0-11.038-9.182-19.989-20.529-19.989S653 701.951 653 712.989v145.022c0 11.038 9.182 19.989 20.529 19.989s20.529-8.951 20.529-19.989V712.989z m106.937 0C801 701.951 791.813 693 780.466 693s-20.53 8.951-20.53 19.989v145.022c0 11.038 9.182 19.989 20.53 19.989S801 869.049 801 858.011V712.989z" fill="#EB3A32" p-id="8669"></path></svg>