<?xml version="1.0" standalone="no"?><!DOCTYPE svg PUBLIC "-//W3C//DTD SVG 1.1//EN" "http://www.w3.org/Graphics/SVG/1.1/DTD/svg11.dtd"><svg t="1559170723843" class="icon" style="" viewBox="0 0 1024 1024" version="1.1" xmlns="http://www.w3.org/2000/svg" p-id="5815" data-spm-anchor-id="a313x.7781069.0.i3" xmlns:xlink="http://www.w3.org/1999/xlink" width="16" height="16"><defs><style type="text/css"></style></defs><path d="M392.045714 468.114286h86.308572c8.777143 0 14.628571 5.851429 14.628571 14.628571v213.577143c0 8.777143-5.851429 14.628571-14.628571 14.628571h-86.308572c-8.777143 0-14.628571-5.851429-14.628571-14.628571V482.742857c0-8.777143 5.851429-14.628571 14.628571-14.628571zM172.617143 555.885714h86.308571c8.777143 0 14.628571 5.851429 14.628572 14.628572v121.417143c0 8.777143-5.851429 14.628571-14.628572 14.628571h-86.308571c-8.777143 0-14.628571-5.851429-14.628572-14.628571V570.514286c0-8.777143 5.851429-14.628571 14.628572-14.628572zM582.217143 468.114286v124.342857c29.257143-33.645714 70.217143-55.588571 115.565714-64.365714V468.114286c0-8.777143-5.851429-14.628571-14.628571-14.628572h-86.308572c-8.777143 0-14.628571 5.851429-14.628571 14.628572z" fill="#1296db" p-id="5816" data-spm-anchor-id="a313x.7781069.0.i1" class=""></path><path d="M741.668571 927.451429c-100.937143 0-181.394286-81.92-181.394285-181.394286 0-100.937143 81.92-181.394286 181.394285-181.394286S923.062857 646.582857 923.062857 746.057143c1.462857 99.474286-80.457143 181.394286-181.394286 181.394286z m0-320.365715c-76.068571 0-137.508571 61.44-137.508571 137.508572s61.44 137.508571 137.508571 137.508571 137.508571-61.44 137.508572-137.508571c1.462857-76.068571-61.44-137.508571-137.508572-137.508572z" fill="#F5A623" p-id="5817"></path><path d="M172.617143 491.52c-5.851429 0-11.702857-2.925714-16.091429-7.314286-7.314286-8.777143-7.314286-23.405714 1.462857-30.72L409.6 232.594286l124.342857 130.194285 171.154286-179.931428H551.497143c-11.702857 0-21.942857-10.24-21.942857-21.942857s10.24-21.942857 21.942857-21.942857h257.462857L533.942857 425.691429l-127.268571-131.657143-219.428572 193.097143c-4.388571 2.925714-10.24 4.388571-14.628571 4.388571zM732.891429 418.377143c-11.702857 0-21.942857-10.24-21.942858-21.942857V292.571429c0-11.702857 10.24-21.942857 21.942858-21.942858s21.942857 10.24 21.942857 21.942858v103.862857c0 11.702857-10.24 21.942857-21.942857 21.942857z" fill="#1afa29" p-id="5818" data-spm-anchor-id="a313x.7781069.0.i2" class="selected"></path><path d="M699.245714 841.142857c-8.777143 0-14.628571-5.851429-14.628571-14.628571V672.914286c0-8.777143 5.851429-14.628571 14.628571-14.628572s14.628571 5.851429 14.628572 14.628572v153.6c0 8.777143-7.314286 14.628571-14.628572 14.628571zM772.388571 841.142857c-8.777143 0-14.628571-5.851429-14.628571-14.628571V672.914286c0-8.777143 5.851429-14.628571 14.628571-14.628572s14.628571 5.851429 14.628572 14.628572v153.6c0 8.777143-7.314286 14.628571-14.628572 14.628571z" fill="#F5A623" p-id="5819"></path><path d="M501.76 782.628571H172.617143c-11.702857 0-21.942857-10.24-21.942857-21.942857s10.24-21.942857 21.942857-21.942857h329.142857c11.702857 0 21.942857 10.24 21.942857 21.942857s-8.777143 21.942857-21.942857 21.942857z" fill="#2F2F2F" p-id="5820"></path></svg>