<?xml version="1.0" standalone="no"?><!DOCTYPE svg PUBLIC "-//W3C//DTD SVG 1.1//EN" "http://www.w3.org/Graphics/SVG/1.1/DTD/svg11.dtd"><svg t="1546604030609" class="icon" style="" viewBox="0 0 1024 1024" version="1.1" xmlns="http://www.w3.org/2000/svg" p-id="11868" xmlns:xlink="http://www.w3.org/1999/xlink" width="16" height="16"><defs><style type="text/css"></style></defs><path d="M620.3 851.9H404.5c-0.4 0-0.8-0.3-0.8-0.8v-39.2c0-0.4 0.3-0.8 0.8-0.8h215.7c0.4 0 0.8 0.3 0.8 0.8v39.2c0 0.4-0.3 0.8-0.7 0.8zM620.3 756.8H404.5c-0.4 0-0.8-0.3-0.8-0.8v-39.2c0-0.4 0.3-0.8 0.8-0.8h215.7c0.4 0 0.8 0.3 0.8 0.8V756c0 0.5-0.3 0.8-0.7 0.8zM566 946.9H458.8c-0.4 0-0.8-0.3-0.8-0.8v-39.2c0-0.4 0.3-0.8 0.8-0.8H566c0.4 0 0.8 0.3 0.8 0.8v39.2c-0.1 0.5-0.4 0.8-0.8 0.8z" fill="#FF552E" p-id="11869"></path><path d="M309.1 254.8c7.9-7.9 7.9-20.9 0-28.8l-48-48c-7.9-7.9-20.9-7.9-28.8 0-7.9 7.9-7.9 20.9 0 28.8l48 48c8 7.9 20.9 7.9 28.8 0zM512.4 186.5c11.2 0 20.4-9.2 20.4-20.4V98.3c0-11.2-9.2-20.4-20.4-20.4S492 87.1 492 98.3v67.9c0 11.2 9.2 20.3 20.4 20.3zM763.7 178l-48 48c-7.9 7.9-7.9 20.9 0 28.8 7.9 7.9 20.9 7.9 28.8 0l48-48c7.9-7.9 7.9-20.9 0-28.8-7.9-7.9-20.9-7.9-28.8 0zM193.3 437.7h-67.9c-11.2 0-20.4 9.2-20.4 20.4s9.2 20.4 20.4 20.4h67.9c11.2 0 20.4-9.2 20.4-20.4s-9.2-20.4-20.4-20.4zM899.4 437.7h-67.9c-11.2 0-20.4 9.2-20.4 20.4s9.2 20.4 20.4 20.4h67.9c11.2 0 20.4-9.2 20.4-20.4s-9.2-20.4-20.4-20.4zM540 215.2C392.6 199.1 268 314 268 458.1c0 63.6 24.5 121.3 64.4 164.8 8 8.7 21.6 9.4 29.9 1 7.5-7.6 8.1-19.9 0.8-27.7-33.7-36.3-54.4-84.8-54.4-138.1 0-125.7 114.4-225.2 244.6-199.7 78.7 15.4 142.2 78.5 158.4 157 14.3 69.8-7.5 134.9-49.9 180.7-7.3 7.9-6.7 20.2 0.9 27.7 8.4 8.4 21.9 7.7 29.9-1.1 45.4-49.5 70.9-117.6 62.8-191.8C743.2 318.8 652.1 227.5 540 215.2z" fill="#595959" p-id="11870"></path><path d="M513.6 612.8c15.1 2.6 28.3-2.1 36.4-12.8 10-13.3 10.2-33.2 0.5-53.4-7.5-15.5-21.6-31.8-42.3-42.8 11.8-11.8 28.3-19.8 46.8-17 16.8 2.5 27.5 7.7 31.9 15.6 10.6 19.2-8.1 61.2-23.1 94.9-7.3 16.5-14.1 32-18.7 46.3-3.2 10 2.6 20.6 12.6 23.7 9.8 3 20.2-2.2 23.5-11.9 5.5-16.4 12.3-33.9 16.4-43.1 20.2-45.5 41.1-92.5 21.7-127.7-10.2-18.5-30-30-58.8-34.3-37.2-5.4-70.5 14-90.1 41.5-4.7-0.6-9.6-1-14.6-1.2-29-0.6-43.2 12.5-49.9 23.7-22.1 37.1 7.9 106.5 25.4 140.7 4.8 9.4 16.5 12.8 25.6 7.6 8.5-4.9 11.8-15.4 7.3-24.1-18.8-37.1-37-87.9-26.7-105.3 0.9-1.5 3.7-5.8 16.5-5.8-0.4 1.9-0.8 3.8-1.1 5.7-6.6 40.9 17.3 72.2 60.7 79.7zM489.2 539c0.2-1.1 0.4-2.1 0.6-3.2 14 7.1 21.6 16.9 25 22.4 6.4 10.4 6.3 18.2 5 18.2-29.4-5.1-32.9-23.1-30.6-37.4z" fill="#FF552E" p-id="11871"></path></svg>