<?xml version="1.0" standalone="no"?><!DOCTYPE svg PUBLIC "-//W3C//DTD SVG 1.1//EN" "http://www.w3.org/Graphics/SVG/1.1/DTD/svg11.dtd"><svg t="1547011961318" class="icon" style="" viewBox="0 0 1024 1024" version="1.1" xmlns="http://www.w3.org/2000/svg" p-id="8256" xmlns:xlink="http://www.w3.org/1999/xlink" width="16" height="16"><defs><style type="text/css"></style></defs><path d="M960 64H64c-32 0-64 32-64 64v768c0 32 32 64 64 64h896c32 0 64-32 64-64V128c0-32-32-64-64-64z m0 832H64V128h896v768z" fill="#727272" p-id="8257"></path><path d="M0 320V128c0-32 32-64 64-64h896c38.4 0 64 32 64 64v192H0z" fill="#039C23" p-id="8258"></path><path d="M64 128h896v128H64z" fill="#FFFFFF" p-id="8259"></path><path d="M64 320h896v576H64z" fill="#FFFFFF" p-id="8260"></path><path d="M448 832h-57.6v-38.4c-6.4 12.8-32 38.4-83.2 38.4s-83.2-32-83.2-89.6c0-134.4 166.4-96 166.4-96v-19.2c0-6.4 0-51.2-51.2-51.2-25.6 0-70.4 25.6-89.6 25.6-25.6 0-12.8-57.6-6.4-64S288 512 339.2 512C409.6 512 448 563.2 448 620.8V832z m-64-140.8h-25.6c-64 0-64 38.4-64 44.8 0 38.4 25.6 38.4 38.4 38.4 38.4 0 51.2-25.6 57.6-32v-51.2zM768 672c0 25.6 6.4 160-96 160-44.8 0-83.2-32-96-44.8v44.8H512V384h64v179.2c32-57.6 83.2-51.2 96-51.2C768 512 768 633.6 768 672z m-64 0c0-83.2-32-96-64-96-70.4 0-64 96-64 96 0 19.2 0 96 64 96s64-83.2 64-96z" fill="#727272" p-id="8261"></path></svg>