<?xml version="1.0" standalone="no"?><!DOCTYPE svg PUBLIC "-//W3C//DTD SVG 1.1//EN" "http://www.w3.org/Graphics/SVG/1.1/DTD/svg11.dtd"><svg t="1546940848273" class="icon" style="" viewBox="0 0 1024 1024" version="1.1" xmlns="http://www.w3.org/2000/svg" p-id="4593" xmlns:xlink="http://www.w3.org/1999/xlink" width="16" height="16"><defs><style type="text/css"></style></defs><path d="M341.330829 614.397006h341.338328a34.139833 34.139833 0 0 1 34.124833 34.139833 34.139833 34.139833 0 0 1-34.124833 34.124833H341.330829a34.139833 34.139833 0 0 1-34.199833-34.124833 34.139833 34.139833 0 0 1 34.199833-34.139833z m0-204.793997h341.323328a34.124833 34.124833 0 0 1 34.139833 34.124833 34.139833 34.139833 0 0 1-34.139833 34.139833H341.330829a34.139833 34.139833 0 0 1-34.199833-34.139833 34.124833 34.124833 0 0 1 34.199833-34.124833z m0-204.808997h341.323328a34.139833 34.139833 0 0 1 34.139833 34.139833A34.124833 34.124833 0 0 1 682.654157 272.998678H341.330829a34.124833 34.124833 0 0 1-34.199833-34.064833 34.139833 34.139833 0 0 1 34.199833-34.139833z m580.272158 750.941322v-307.198495a34.124833 34.124833 0 0 1 34.124833-34.139833 34.139833 34.139833 0 0 1 34.139833 34.139833v341.323328a34.139833 34.139833 0 0 1-34.139833 34.139833H68.272166A34.139833 34.139833 0 0 1 34.132333 989.860167V648.536839a34.139833 34.139833 0 0 1 34.139833-34.139833 34.139833 34.139833 0 0 1 34.124833 34.139833v307.198495z m0 0" fill="#d3217b" p-id="4594" data-spm-anchor-id="a313x.7781069.0.i3" class=""></path><path d="M208.626479 0.000015h606.732028a37.964814 37.964814 0 0 1 37.964814 37.964814v811.496026a37.964814 37.964814 0 0 1-37.964814 37.949814H208.626479A37.964814 37.964814 0 0 1 170.631665 849.505855v-811.496026A37.964814 37.964814 0 0 1 208.626479 0.000015z m30.314851 68.264666v750.926322h546.117326V68.264681z m0 0" fill="#3b94c5" p-id="4595" data-spm-anchor-id="a313x.7781069.0.i4" class="selected"></path></svg>