<?xml version="1.0" standalone="no"?><!DOCTYPE svg PUBLIC "-//W3C//DTD SVG 1.1//EN" "http://www.w3.org/Graphics/SVG/1.1/DTD/svg11.dtd"><svg t="1547682359608" class="icon" style="" viewBox="0 0 1024 1024" version="1.1" xmlns="http://www.w3.org/2000/svg" p-id="9977" xmlns:xlink="http://www.w3.org/1999/xlink" width="16" height="16"><defs><style type="text/css"></style></defs><path d="M869.840874 148.567863C671.75039-49.522621 345.859594-49.522621 147.769111 148.567863c-198.090484 198.090484-198.090484 523.981279 0 722.071763 198.090484 198.090484 523.981279 198.090484 722.071763 0 198.090484-198.090484 198.090484-517.591264 0-722.071763z m-31.950078 690.121685c-178.920437 178.920437-472.861154 178.920437-651.781592 0S0.798752 365.828393 186.109204 186.907956s472.861154-178.920437 651.781592 0 178.920437 472.861154 0 651.781592z" fill="#A7CF5D" p-id="9978"></path><path d="M524.780031 238.028081c-108.630265 0-204.480499 57.51014-255.600624 146.970359L198.889236 314.708268V512.798752h204.480499L313.909516 429.728549c38.340094-76.680187 121.410296-127.800312 210.870515-127.800312 127.800312 0 236.430577 102.24025 236.430577 230.040562s-108.630265 230.040562-236.430577 230.040561c-102.24025 0-185.310452-63.900156-223.650546-153.360374h-63.900156c31.950078 121.410296 153.360374 217.26053 287.550702 217.26053 166.140406 0 300.330733-134.190328 300.330733-293.940717 0-159.75039-134.190328-293.940718-300.330733-293.940718z m-44.730109 153.360375v159.75039L627.020281 640.599064l25.560062-38.340094-127.800312-76.680187v-127.800312h-44.730109v-6.390015z" fill="#A7CF5D" p-id="9979"></path></svg>