<?xml version="1.0" standalone="no"?><!DOCTYPE svg PUBLIC "-//W3C//DTD SVG 1.1//EN" "http://www.w3.org/Graphics/SVG/1.1/DTD/svg11.dtd"><svg t="1548158822330" class="icon" style="" viewBox="0 0 1024 1024" version="1.1" xmlns="http://www.w3.org/2000/svg" p-id="1405" xmlns:xlink="http://www.w3.org/1999/xlink" width="16" height="16"><defs><style type="text/css"></style></defs><path d="M618.666667 192L362.666667 106.666667 106.666667 192v682.666667l256-85.333334 256 85.333334 256-85.333334V106.666667z" fill="#FFECB3" p-id="1406"></path><path d="M362.666667 106.666667v682.666666l256 85.333334V192z" fill="#FFD54F" p-id="1407"></path><path d="M917.333333 661.333333c0 141.376-114.624 256-256 256s-256-114.624-256-256 114.624-256 256-256 256 114.624 256 256" fill="#00ACC1" p-id="1408"></path><path d="M853.333333 661.333333c0 106.048-85.952 192-192 192s-192-85.952-192-192 85.952-192 192-192 192 85.952 192 192" fill="#EEEEEE" p-id="1409"></path><path d="M640 512h42.666667v149.333333h-42.666667z" fill="" p-id="1410"></path><path d="M646.954667 675.712l28.757333-28.757333 81.045333 81.045333-28.757333 28.757333z" fill="" p-id="1411"></path><path d="M693.333333 661.333333a32 32 0 1 1-64.021333-0.021333A32 32 0 0 1 693.333333 661.333333" fill="" p-id="1412"></path></svg>