<?xml version="1.0" standalone="no"?><!DOCTYPE svg PUBLIC "-//W3C//DTD SVG 1.1//EN" "http://www.w3.org/Graphics/SVG/1.1/DTD/svg11.dtd"><svg t="1558526820364" class="icon" style="" viewBox="0 0 1024 1024" version="1.1" xmlns="http://www.w3.org/2000/svg" p-id="1368" xmlns:xlink="http://www.w3.org/1999/xlink" width="16" height="16"><defs><style type="text/css"></style></defs><path d="M808.421053 377.263158a26.947368 26.947368 0 1 1 53.894736 0v525.473684a107.789474 107.789474 0 0 1-107.789473 107.789474h-485.052632a107.789474 107.789474 0 0 1-107.789473-107.789474V377.263158a26.947368 26.947368 0 0 1 53.894736 0v525.473684a53.894737 53.894737 0 0 0 53.894737 53.894737h485.052632a53.894737 53.894737 0 0 0 53.894737-53.894737V377.263158zM296.421053 215.578947h431.157894V113.178947c0-17.731368-14.928842-32.336842-33.68421-32.336842h-363.789474A33.037474 33.037474 0 0 0 296.421053 113.178947V215.578947zM242.526316 215.578947V113.178947C242.526316 65.428211 281.869474 26.947368 330.105263 26.947368h363.789474C742.130526 26.947368 781.473684 65.428211 781.473684 113.178947V215.578947h188.631579a26.947368 26.947368 0 1 1 0 53.894737H53.894737a26.947368 26.947368 0 0 1 0-53.894737H242.526316z" fill="#ff0000" p-id="1369" data-spm-anchor-id="a313x.7781069.0.i1" class="selected"></path><path d="M437.894737 410.947368v350.31579a26.947368 26.947368 0 1 1-53.894737 0v-350.31579a26.947368 26.947368 0 0 1 53.894737 0z m202.105263 0v350.31579a26.947368 26.947368 0 1 1-53.894737 0v-350.31579a26.947368 26.947368 0 1 1 53.894737 0z" fill="#ff0000" p-id="1370" data-spm-anchor-id="a313x.7781069.0.i2" class="selected"></path></svg>