<?xml version="1.0" standalone="no"?><!DOCTYPE svg PUBLIC "-//W3C//DTD SVG 1.1//EN" "http://www.w3.org/Graphics/SVG/1.1/DTD/svg11.dtd"><svg t="1547028251128" class="icon" style="" viewBox="0 0 1024 1024" version="1.1" xmlns="http://www.w3.org/2000/svg" p-id="61935" xmlns:xlink="http://www.w3.org/1999/xlink" width="16" height="16"><defs><style type="text/css"></style></defs><path d="M775.3 900.4H212.4c-20 0-36.3-16.2-36.3-36.3V668.6c0-20 16.2-36.3 36.3-36.3s36.3 16.2 36.3 36.3v159.2H739V668.6c0-20 16.2-36.3 36.3-36.3s36.3 16.2 36.3 36.3v195.5c0 20-16.2 36.3-36.3 36.3zM498 589.2c-40.3 0-79-13.7-110.4-38.5-32.3 25.6-72.3 39.4-114.1 38.5-56.7-1.2-111.1-32.8-145.7-84.7-2-3-3.9-6-5.7-9-29-48.7-29-111.9 0.1-165l92.9-169.1c18-32.8 52.4-53.2 89.8-53.2h401.4c39.5 0 75.9 23.1 92.7 58.8l92.4 196c1.2 2.5 2 5 2.6 7.7 10.6 48 2.1 91.7-26 133.8-34.6 51.9-89.1 83.6-145.7 84.7-41.8 0.9-81.7-12.9-114.1-38.5-31.2 24.8-69.8 38.5-110.2 38.5zM387.6 463.8c10.8 0 21.1 4.9 28 13.2 20.7 25.2 50.7 39.6 82.4 39.6 31.6 0 61.7-14.4 82.4-39.6 6.9-8.4 17.2-13.2 28-13.2s21.1 4.9 28 13.2c21.2 25.8 52.1 40.2 84.6 39.6 32.9-0.7 65.4-20.3 86.8-52.4 16.2-24.3 21.3-47.3 16.2-74.2l-90.5-192c-4.9-10.4-15.6-17.2-27.1-17.2H305c-10.9 0-21 6-26.2 15.5l-92.9 169.1c-16.8 30.6-17.3 66.2-1.4 92.9 1.2 2 2.4 4 3.7 5.9 21.4 32.2 53.9 51.8 86.8 52.4 32.5 0.7 63.3-13.8 84.6-39.6 6.9-8.3 17.2-13.2 28-13.2z" fill="#d3217b" p-id="61936"></path><path d="M680.9 385H318c-20 0-36.3-16.2-36.3-36.3s16.2-36.3 36.3-36.3h362.8c20 0 36.3 16.2 36.3 36.3S700.9 385 680.9 385z" fill="#d3217b" p-id="61937"></path></svg>